SplineFontDB: 3.0
FontName: Muli-Medium-Italic
FullName: Muli Medium Italic
FamilyName: Muli
Weight: Medium
Copyright: 2013 (c) vernon adams
Version: 1
ItalicAngle: -5
UnderlinePosition: 0
UnderlineWidth: 0
Ascent: 800
Descent: 200
UFOAscent: 827.148
UFODescent: -256.348
LayerCount: 2
Layer: 0 0 "Back"  1
Layer: 1 0 "Fore"  0
FSType: 0
OS2Version: 0
OS2_WeightWidthSlopeOnly: 0
OS2_UseTypoMetrics: 1
CreationTime: 1367940493
ModificationTime: 1375814822
PfmFamily: 33
TTFWeight: 500
TTFWidth: 5
LineGap: 0
VLineGap: 0
OS2TypoAscent: 966
OS2TypoAOffset: 0
OS2TypoDescent: -332
OS2TypoDOffset: 0
OS2TypoLinegap: 0
OS2WinAscent: 966
OS2WinAOffset: 0
OS2WinDescent: 332
OS2WinDOffset: 0
HheadAscent: 966
HheadAOffset: 0
HheadDescent: -332
HheadDOffset: 0
OS2Vendor: 'newt'
Lookup: 260 0 0 "'mark' Mark Positioning lookup 1"  {"'mark' Mark Positioning lookup 1-1"  } []
Lookup: 258 0 0 "'kern' Horizontal Kerning lookup 0"  {"'kern' Horizontal Kerning lookup 0 subtable" [307,0,0] } ['kern' ('DFLT' <'dflt' > 'latn' <'dflt' > ) ]
MarkAttachClasses: 1
DEI: 91125
KernClass2: 11 20 "'kern' Horizontal Kerning lookup 0 subtable" 
 89 A Aacute Abreve Acircumflex Adieresis Agrave Amacron Aogonek Aring Atilde uni0200 uni0202
 9 F uni1E1E
 14 K Kcommaaccent
 28 L Lacute Lcaron Lcommaaccent
 9 P uni1E56
 37 T Tcaron Tcommaaccent uni021A uni1E6A
 1 V
 37 W Wacute Wcircumflex Wdieresis Wgrave
 37 Y Yacute Ycircumflex Ydieresis Ygrave
 9 f uni1E1F
 89 A Aacute Abreve Acircumflex Adieresis Agrave Amacron Aogonek Aring Atilde uni0200 uni0202
 47 C Cacute Ccaron Ccedilla Ccircumflex Cdotaccent
 52 G Gbreve Gcircumflex Gcommaaccent Gdotaccent uni01F4
 89 O Oacute Obreve Ocircumflex Odieresis Ograve Ohungarumlaut Omacron Otilde uni020C uni020E
 1 Q
 37 T Tcaron Tcommaaccent uni021A uni1E6A
 1 V
 37 W Wacute Wcircumflex Wdieresis Wgrave
 37 Y Yacute Ycircumflex Ydieresis Ygrave
 89 a aacute abreve acircumflex adieresis agrave amacron aogonek aring atilde uni0201 uni0203

StartChar: A
Encoding: 33 65 0
Width: 686
VWidth: 0
Flags: MW
AnchorPoint: "ogonek" 616 2 basechar 0
LayerCount: 2
UndoRedoHistory
Layer: 1
Undoes
EndUndoes
Redoes
EndRedoes
EndUndoRedoHistory
Fore
SplineSet
12 0 m 1
 348 711 l 1
 455 711 l 1
 677 0 l 1
 564 0 l 1
 507 185 l 1
 211 185 l 1
 127 0 l 1
 12 0 l 1
249 274 m 1
 480 274 l 1
 451 384 423 494 393 602 c 1
 345 493 297 383 249 274 c 1
EndSplineSet
EndChar

StartChar: AE
Encoding: 132 198 1
Width: 1012
VWidth: 0
Flags: MW
LayerCount: 2
UndoRedoHistory
Layer: 1
Undoes
EndUndoes
Redoes
EndRedoes
EndUndoRedoHistory
Fore
SplineSet
304 270 m 1
 531 270 l 1
 530 612 l 1
 519 612 l 1
 304 270 l 1
18 0 m 1
 472 711 l 1
 966 711 l 1
 963 623 l 1
 627 623 l 1
 633 408 l 1
 938 408 l 1
 936 320 l 1
 637 320 l 1
 644 88 l 1
 949 88 l 1
 946 0 l 1
 538 0 l 1
 534 185 l 1
 257 185 l 1
 141 0 l 1
 18 0 l 1
EndSplineSet
EndChar

StartChar: B
Encoding: 34 66 11
Width: 653
VWidth: 0
Flags: MW
LayerCount: 2
UndoRedoHistory
Layer: 1
Undoes
EndUndoes
Redoes
EndRedoes
EndUndoRedoHistory
Fore
SplineSet
336 417 m 2
 419 417 505 438 505 535 c 0
 505 609 440 627 344 627 c 2
 250 627 l 1
 232 417 l 1
 336 417 l 2
332 84 m 2
 445 84 511 137 511 228 c 0
 511 308 456 333 338 333 c 2
 225 333 l 1
 203 84 l 1
 332 84 l 2
615 556 m 0
 615 472 570 413 489 384 c 1
 573 365 620 308 620 227 c 0
 620 116 528 0 352 0 c 2
 92 0 l 1
 155 711 l 1
 327 711 l 2
 448 711 615 703 615 556 c 0
EndSplineSet
EndChar

StartChar: C
Encoding: 35 67 12
Width: 684
VWidth: 0
Flags: MW
AnchorPoint: "bot" 406 2 basechar 0
LayerCount: 2
UndoRedoHistory
Layer: 1
Undoes
EndUndoes
Redoes
EndRedoes
EndUndoRedoHistory
Fore
SplineSet
411 -11 m 0
 190 -11 81 136 81 315 c 0
 81 531 229 724 456 724 c 0
 548 724 624 699 683 643 c 1
 637 573 l 1
 584 613 522 636 459 636 c 0
 290 636 189 487 189 320 c 0
 189 190 258 77 417 77 c 0
 485 77 562 103 623 150 c 1
 649 65 l 1
 584 17 505 -11 411 -11 c 0
EndSplineSet
EndChar

StartChar: D
Encoding: 36 68 18
Width: 749
VWidth: 0
Flags: MW
LayerCount: 2
UndoRedoHistory
Layer: 1
Undoes
EndUndoes
Redoes
EndRedoes
EndUndoRedoHistory
Fore
SplineSet
92 0 m 1
 155 711 l 1
 322 711 l 2
 576 711 731 618 731 399 c 0
 731 142 570 0 301 0 c 2
 92 0 l 1
316 84 m 2
 518 84 623 203 623 395 c 0
 623 553 529 627 325 627 c 2
 251 627 l 1
 203 84 l 1
 316 84 l 2
EndSplineSet
EndChar

StartChar: E
Encoding: 37 69 21
Width: 584
VWidth: 0
Flags: MW
AnchorPoint: "ogonek" 430 2 basechar 0
LayerCount: 2
UndoRedoHistory
Layer: 1
Undoes
EndUndoes
Redoes
EndRedoes
EndUndoRedoHistory
Fore
SplineSet
92 0 m 1
 154 711 l 1
 587 711 l 1
 580 627 l 1
 250 627 l 1
 231 414 l 1
 543 414 l 1
 535 330 l 1
 224 330 l 1
 203 84 l 1
 547 84 l 1
 539 0 l 1
 92 0 l 1
EndSplineSet
EndChar

StartChar: Eng
Encoding: 264 330 30
Width: 773
VWidth: 0
Flags: MW
LayerCount: 2
UndoRedoHistory
Layer: 1
Undoes
EndUndoes
Redoes
EndRedoes
EndUndoRedoHistory
Fore
SplineSet
254 -189 m 1
 274 -108 l 1
 330 -124 380 -133 423 -133 c 0
 512 -133 567 -101 579 -6 c 0
 579 -4 583 31 583 33 c 1
 281 501 l 1
 239 574 l 1
 189 0 l 1
 91 0 l 1
 153 711 l 1
 265 711 l 1
 553 254 l 1
 596 181 l 1
 643 711 l 1
 742 711 l 1
 683 36 l 2
 669 -130 585 -211 419 -211 c 0
 371 -211 316 -204 254 -189 c 1
EndSplineSet
EndChar

StartChar: Eth
Encoding: 142 208 32
Width: 734
VWidth: 0
Flags: MW
LayerCount: 2
UndoRedoHistory
Layer: 1
Undoes
EndUndoes
Redoes
EndRedoes
EndUndoRedoHistory
Fore
SplineSet
51 398 m 1
 355 398 l 1
 349 326 l 1
 45 326 l 1
 51 398 l 1
EndSplineSet
Refer: 18 68 N 1 0 0 1 0 0 2
EndChar

StartChar: Euro
Encoding: 416 8364 33
Width: 581
VWidth: 0
Flags: MW
LayerCount: 2
UndoRedoHistory
Layer: 1
Undoes
EndUndoes
Redoes
EndRedoes
EndUndoRedoHistory
Fore
SplineSet
366 -10 m 0
 206 -10 132 96 126 252 c 1
 61 252 l 1
 76 319 l 1
 126 319 l 1
 126 329 127 340 128 354 c 0
 128 362 130 372 131 383 c 1
 70 383 l 1
 87 450 l 1
 146 450 l 1
 187 600 290 707 444 707 c 0
 508 707 560 688 597 649 c 1
 571 557 l 1
 540 609 492 636 435 636 c 0
 330 636 263 552 232 450 c 1
 521 450 l 1
 506 383 l 1
 218 383 l 1
 217 377 215 369 215 361 c 0
 213 341 213 319 213 319 c 1
 494 319 l 1
 479 252 l 1
 214 252 l 1
 219 139 266 61 380 61 c 0
 429 61 483 81 541 124 c 1
 532 37 l 1
 481 4 425 -10 366 -10 c 0
EndSplineSet
EndChar

StartChar: F
Encoding: 38 70 34
Width: 549
VWidth: 0
Flags: MW
LayerCount: 2
UndoRedoHistory
Layer: 1
Undoes
EndUndoes
Redoes
EndRedoes
EndUndoRedoHistory
Fore
SplineSet
92 0 m 1
 155 711 l 1
 569 711 l 1
 562 627 l 1
 250 627 l 1
 231 413 l 1
 526 413 l 1
 519 329 l 1
 224 329 l 1
 195 0 l 1
 92 0 l 1
EndSplineSet
EndChar

StartChar: G
Encoding: 39 71 35
Width: 743
VWidth: 0
Flags: MW
LayerCount: 2
UndoRedoHistory
Layer: 1
Undoes
EndUndoes
Redoes
EndRedoes
EndUndoRedoHistory
Fore
SplineSet
412 -11 m 0
 192 -11 80 111 80 299 c 0
 80 536 240 724 486 724 c 0
 637 724 712 653 712 653 c 1
 668 577 l 1
 668 577 605 636 480 636 c 0
 295 636 188 483 188 312 c 0
 188 172 264 77 425 77 c 0
 473 77 532 85 576 101 c 1
 593 294 l 1
 413 294 l 1
 420 378 l 1
 698 378 l 1
 670 42 l 1
 585 2 495 -11 412 -11 c 0
EndSplineSet
EndChar

StartChar: H
Encoding: 40 72 40
Width: 750
VWidth: 0
Flags: MW
LayerCount: 2
UndoRedoHistory
Layer: 1
Undoes
EndUndoes
Redoes
EndRedoes
EndUndoRedoHistory
Fore
SplineSet
92 0 m 1
 155 711 l 1
 257 711 l 1
 231 405 l 1
 591 405 l 1
 618 711 l 1
 721 711 l 1
 658 0 l 1
 557 0 l 1
 584 321 l 1
 225 321 l 1
 196 0 l 1
 92 0 l 1
EndSplineSet
EndChar

StartChar: Hbar
Encoding: 228 294 41
Width: 750
VWidth: 0
Flags: MW
LayerCount: 2
UndoRedoHistory
Layer: 1
Undoes
EndUndoes
Redoes
EndRedoes
EndUndoRedoHistory
Fore
SplineSet
85 544 m 1
 91 619 l 1
 753 619 l 1
 747 544 l 1
 85 544 l 1
EndSplineSet
Refer: 40 72 N 1 0 0 1 0 0 2
EndChar

StartChar: I
Encoding: 41 73 43
Width: 283
VWidth: 0
Flags: MW
AnchorPoint: "ogonek" 142 0 basechar 0
LayerCount: 2
UndoRedoHistory
Layer: 1
Undoes
EndUndoes
Redoes
EndRedoes
EndUndoRedoHistory
Fore
SplineSet
89 0 m 1
 151 711 l 1
 254 711 l 1
 191 0 l 1
 89 0 l 1
EndSplineSet
EndChar

StartChar: J
Encoding: 42 74 54
Width: 366
VWidth: 0
Flags: MW
LayerCount: 2
UndoRedoHistory
Layer: 1
Undoes
EndUndoes
Redoes
EndRedoes
EndUndoRedoHistory
Fore
SplineSet
84 -171 m 0
 35 -171 -13 -158 -45 -146 c 1
 -22 -65 l 1
 3 -73 40 -83 77 -83 c 0
 147 -83 168 -37 175 48 c 2
 233 711 l 1
 337 711 l 1
 279 48 l 2
 266 -97 198 -171 84 -171 c 0
EndSplineSet
EndChar

StartChar: K
Encoding: 43 75 56
Width: 634
VWidth: 0
Flags: MW
LayerCount: 2
UndoRedoHistory
Layer: 1
Undoes
EndUndoes
Redoes
EndRedoes
EndUndoRedoHistory
Fore
SplineSet
92 0 m 1
 155 711 l 1
 257 711 l 1
 229 392 l 1
 551 711 l 1
 679 711 l 1
 330 366 l 1
 639 0 l 1
 506 0 l 1
 225 333 l 1
 196 0 l 1
 92 0 l 1
EndSplineSet
EndChar

StartChar: L
Encoding: 44 76 58
Width: 543
VWidth: 0
Flags: MW
LayerCount: 2
UndoRedoHistory
Layer: 1
Undoes
EndUndoes
Redoes
EndRedoes
EndUndoRedoHistory
Fore
SplineSet
91 0 m 1
 154 711 l 1
 256 711 l 1
 201 84 l 1
 531 84 l 1
 524 0 l 1
 91 0 l 1
EndSplineSet
EndChar

StartChar: Lslash
Encoding: 255 321 63
Width: 557
VWidth: 0
Flags: MW
LayerCount: 2
UndoRedoHistory
Layer: 1
Undoes
EndUndoes
Redoes
EndRedoes
EndUndoRedoHistory
Fore
SplineSet
360 444 m 1
 39 236 l 1
 47 324 l 1
 367 531 l 1
 360 444 l 1
EndSplineSet
Refer: 58 76 N 1 0 0 1 0 0 2
EndChar

StartChar: M
Encoding: 45 77 64
Width: 941
VWidth: 0
Flags: MW
LayerCount: 2
UndoRedoHistory
Layer: 1
Undoes
EndUndoes
Redoes
EndRedoes
EndUndoRedoHistory
Fore
SplineSet
92 0 m 1
 155 711 l 1
 278 711 l 1
 347 521 416 331 484 141 c 1
 586 331 689 521 792 711 c 1
 912 711 l 1
 850 0 l 1
 752 0 l 1
 800 543 l 1
 703 362 606 181 509 0 c 1
 435 0 l 1
 370 183 304 365 240 549 c 1
 192 0 l 1
 92 0 l 1
EndSplineSet
EndChar

StartChar: N
Encoding: 46 78 65
Width: 772
VWidth: 0
Flags: MW
LayerCount: 2
UndoRedoHistory
Layer: 1
Undoes
EndUndoes
Redoes
EndRedoes
EndUndoRedoHistory
Fore
SplineSet
92 0 m 1
 155 711 l 1
 266 711 l 1
 376 524 486 337 595 149 c 1
 644 711 l 1
 743 711 l 1
 681 0 l 1
 569 0 l 1
 459 187 348 373 239 561 c 1
 190 0 l 1
 92 0 l 1
EndSplineSet
EndChar

StartChar: O
Encoding: 47 79 70
Width: 799
VWidth: 0
Flags: MW
AnchorPoint: "ogonek" 409 2 basechar 0
LayerCount: 2
UndoRedoHistory
Layer: 1
Undoes
EndUndoes
Redoes
EndRedoes
EndUndoRedoHistory
Fore
SplineSet
782 401 m 0
 782 156 633 -11 400 -11 c 0
 196 -11 81 112 81 309 c 0
 81 552 231 724 467 724 c 0
 666 724 782 598 782 401 c 0
457 636 m 0
 288 636 192 487 192 315 c 0
 192 179 260 77 406 77 c 0
 576 77 670 215 670 398 c 0
 670 535 603 636 457 636 c 0
EndSplineSet
EndChar

StartChar: OE
Encoding: 272 338 71
Width: 1026
VWidth: 0
Flags: MW
LayerCount: 2
UndoRedoHistory
Layer: 1
Undoes
EndUndoes
Redoes
EndRedoes
EndUndoRedoHistory
Fore
SplineSet
413 636 m 0
 269 636 162 488 162 318 c 0
 162 178 238 72 364 72 c 0
 420 72 475 90 525 122 c 1
 566 590 l 1
 522 620 470 636 413 636 c 0
52 312 m 0
 52 543 210 724 411 724 c 0
 468 724 524 709 574 680 c 1
 577 711 l 1
 977 711 l 1
 969 623 l 1
 672 623 l 1
 653 408 l 1
 932 408 l 1
 924 320 l 1
 646 320 l 1
 625 88 l 1
 937 88 l 1
 929 0 l 1
 515 0 l 1
 518 38 l 1
 461 5 401 -11 343 -11 c 0
 167 -11 52 120 52 312 c 0
EndSplineSet
EndChar

StartChar: uni03A9
Encoding: 374 937 79
Width: 782
VWidth: 0
Flags: MW
LayerCount: 2
UndoRedoHistory
Layer: 1
Undoes
EndUndoes
Redoes
EndRedoes
EndUndoRedoHistory
Fore
SplineSet
448 620 m 0
 304 620 194 505 194 337 c 0
 194 225 249 129 333 70 c 1
 329 0 l 1
 51 0 l 1
 44 83 l 1
 199 83 l 1
 130 145 86 232 86 340 c 0
 86 565 253 705 457 705 c 0
 647 705 760 579 760 409 c 0
 760 258 681 154 593 83 c 1
 615 83 710 83 731 83 c 1
 717 0 l 1
 453 0 l 1
 457 70 l 1
 560 135 639 241 650 366 c 0
 651 377 651 387 651 397 c 0
 651 519 585 620 448 620 c 0
EndSplineSet
EndChar

StartChar: Oslash
Encoding: 150 216 80
Width: 812
VWidth: 0
Flags: MW
LayerCount: 2
UndoRedoHistory
Layer: 1
Undoes
EndUndoes
Redoes
EndRedoes
EndUndoRedoHistory
Fore
SplineSet
214 -64 m 1
 162 -35 l 1
 208 39 l 1
 126 93 81 187 81 309 c 0
 81 552 231 724 467 724 c 0
 521 724 570 715 611 697 c 1
 649 759 l 1
 702 730 l 1
 663 667 l 1
 740 612 782 519 782 401 c 0
 782 156 633 -11 400 -11 c 0
 348 -11 301 -3 261 12 c 1
 214 -64 l 1
457 636 m 0
 288 636 192 487 192 315 c 0
 192 237 214 170 261 127 c 1
 560 614 l 1
 531 628 497 636 457 636 c 0
609 579 m 1
 312 95 l 1
 339 83 370 77 406 77 c 0
 576 77 670 215 670 398 c 0
 670 472 650 536 609 579 c 1
EndSplineSet
EndChar

StartChar: P
Encoding: 48 80 82
Width: 621
VWidth: 0
Flags: MW
LayerCount: 2
UndoRedoHistory
Layer: 1
Undoes
EndUndoes
Redoes
EndRedoes
EndUndoRedoHistory
Fore
SplineSet
351 405 m 2
 453 405 523 429 523 530 c 0
 523 619 451 627 348 627 c 2
 250 627 l 1
 231 405 l 1
 351 405 l 2
632 542 m 0
 632 369 512 321 340 321 c 2
 224 321 l 1
 197 0 l 1
 92 0 l 1
 155 711 l 1
 344 711 l 2
 502 711 632 696 632 542 c 0
EndSplineSet
EndChar

StartChar: Q
Encoding: 49 81 83
Width: 799
VWidth: 0
Flags: MW
LayerCount: 2
UndoRedoHistory
Layer: 1
Undoes
EndUndoes
Redoes
EndRedoes
EndUndoRedoHistory
Fore
SplineSet
457 636 m 0
 288 636 192 487 192 315 c 0
 192 179 260 77 406 77 c 0
 576 77 670 215 670 398 c 0
 670 535 603 636 457 636 c 0
428 -10 m 1
 419 -11 409 -11 400 -11 c 0
 196 -11 81 112 81 309 c 0
 81 552 231 724 467 724 c 0
 666 724 782 598 782 401 c 0
 782 202 684 55 523 6 c 1
 558 -76 628 -147 628 -147 c 2
 562 -212 l 1
 562 -212 476 -124 428 -10 c 1
EndSplineSet
EndChar

StartChar: R
Encoding: 50 82 84
Width: 659
VWidth: 0
Flags: MW
LayerCount: 2
UndoRedoHistory
Layer: 1
Undoes
EndUndoes
Redoes
EndRedoes
EndUndoRedoHistory
Fore
SplineSet
359 398 m 2
 444 398 514 427 514 530 c 0
 514 604 464 627 379 627 c 2
 250 627 l 1
 230 398 l 1
 359 398 l 2
92 0 m 1
 155 711 l 1
 355 711 l 2
 467 711 619 700 619 541 c 0
 619 441 579 370 474 339 c 1
 474 339 531 321 566 202 c 2
 626 0 l 1
 516 0 l 1
 456 209 l 2
 433 288 414 314 338 314 c 2
 224 314 l 1
 196 0 l 1
 92 0 l 1
EndSplineSet
EndChar

StartChar: S
Encoding: 51 83 88
Width: 600
VWidth: 0
Flags: MW
LayerCount: 2
UndoRedoHistory
Layer: 1
Undoes
EndUndoes
Redoes
EndRedoes
EndUndoRedoHistory
Fore
SplineSet
565 209 m 0
 565 50 440 -11 304 -11 c 0
 150 -11 71 70 71 70 c 1
 122 144 l 1
 122 144 205 77 308 77 c 0
 403 77 457 118 457 198 c 0
 457 261 401 290 298 326 c 0
 192 363 112 410 112 514 c 0
 112 656 230 724 369 724 c 0
 530 724 584 647 584 647 c 1
 526 579 l 1
 526 579 479 636 376 636 c 0
 301 636 222 610 222 527 c 0
 222 461 278 439 377 404 c 0
 492 363 565 314 565 209 c 0
EndSplineSet
EndChar

StartChar: T
Encoding: 52 84 94
Width: 563
VWidth: 0
Flags: MW
AnchorPoint: "bot" 279 0 basechar 0
LayerCount: 2
UndoRedoHistory
Layer: 1
Undoes
EndUndoes
Redoes
EndRedoes
EndUndoRedoHistory
Fore
SplineSet
230 0 m 1
 285 627 l 1
 61 627 l 1
 68 711 l 1
 622 711 l 1
 615 627 l 1
 387 627 l 1
 333 0 l 1
 230 0 l 1
EndSplineSet
EndChar

StartChar: Tbar
Encoding: 292 358 95
Width: 563
VWidth: 0
Flags: MW
LayerCount: 2
UndoRedoHistory
Layer: 1
Undoes
EndUndoes
Redoes
EndRedoes
EndUndoRedoHistory
Fore
SplineSet
131 303 m 1
 138 379 l 1
 495 379 l 1
 488 303 l 1
 131 303 l 1
EndSplineSet
Refer: 94 84 N 1 0 0 1 0 0 2
EndChar

StartChar: Thorn
Encoding: 156 222 98
Width: 627
VWidth: 0
Flags: MW
LayerCount: 2
UndoRedoHistory
Layer: 1
Undoes
EndUndoes
Redoes
EndRedoes
EndUndoRedoHistory
Fore
SplineSet
325 253 m 2
 429 253 499 295 499 396 c 0
 499 485 431 507 325 507 c 2
 227 507 l 1
 205 253 l 1
 325 253 l 2
609 406 m 0
 609 234 471 165 307 165 c 2
 197 165 l 1
 183 0 l 1
 81 0 l 1
 143 708 l 1
 245 708 l 1
 235 595 l 1
 326 595 l 2
 484 595 609 561 609 406 c 0
EndSplineSet
EndChar

StartChar: U
Encoding: 53 85 99
Width: 729
VWidth: 0
Flags: MW
AnchorPoint: "ogonek" 405 -0 basechar 0
LayerCount: 2
UndoRedoHistory
Layer: 1
Undoes
EndUndoes
Redoes
EndRedoes
EndUndoRedoHistory
Fore
SplineSet
363 -11 m 0
 166 -11 103 88 103 226 c 0
 103 241 104 256 105 272 c 2
 144 711 l 1
 248 711 l 1
 209 269 l 2
 208 257 208 244 208 233 c 0
 208 121 264 77 372 77 c 0
 485 77 555 132 567 267 c 2
 606 711 l 1
 711 711 l 1
 672 274 l 2
 657 106 574 -11 363 -11 c 0
EndSplineSet
EndChar

StartChar: V
Encoding: 54 86 110
Width: 642
VWidth: 0
Flags: MW
LayerCount: 2
UndoRedoHistory
Layer: 1
Undoes
EndUndoes
Redoes
EndRedoes
EndUndoRedoHistory
Fore
SplineSet
271 0 m 1
 76 711 l 1
 189 711 l 1
 309 230 l 1
 336 129 l 1
 422 320 502 517 585 711 c 1
 692 711 l 1
 375 0 l 1
 271 0 l 1
EndSplineSet
EndChar

StartChar: W
Encoding: 55 87 111
Width: 991
VWidth: 0
Flags: MW
LayerCount: 2
UndoRedoHistory
Layer: 1
Undoes
EndUndoes
Redoes
EndRedoes
EndUndoRedoHistory
Fore
SplineSet
209 0 m 1
 77 711 l 1
 186 711 l 1
 219 515 253 320 285 123 c 1
 360 319 434 515 509 711 c 1
 612 711 l 1
 654 516 696 321 737 125 c 1
 803 320 867 516 932 711 c 1
 1036 711 l 1
 784 0 l 1
 667 0 l 1
 547 577 l 1
 326 0 l 1
 209 0 l 1
EndSplineSet
EndChar

StartChar: X
Encoding: 56 88 116
Width: 643
VWidth: 0
Flags: MW
LayerCount: 2
UndoRedoHistory
Layer: 1
Undoes
EndUndoes
Redoes
EndRedoes
EndUndoRedoHistory
Fore
SplineSet
515 0 m 1
 350 278 l 1
 134 0 l 1
 17 0 l 1
 297 359 l 1
 89 711 l 1
 211 711 l 1
 366 445 l 1
 570 711 l 1
 684 711 l 1
 418 365 l 1
 635 0 l 1
 515 0 l 1
EndSplineSet
EndChar

StartChar: Y
Encoding: 57 89 117
Width: 614
VWidth: 0
Flags: MW
LayerCount: 2
UndoRedoHistory
Layer: 1
Undoes
EndUndoes
Redoes
EndRedoes
EndUndoRedoHistory
Fore
SplineSet
254 0 m 1
 279 284 l 1
 69 711 l 1
 183 711 l 1
 340 378 l 1
 552 711 l 1
 669 711 l 1
 382 286 l 1
 357 0 l 1
 254 0 l 1
EndSplineSet
EndChar

StartChar: Z
Encoding: 58 90 122
Width: 584
VWidth: 0
Flags: MW
LayerCount: 2
UndoRedoHistory
Layer: 1
Undoes
EndUndoes
Redoes
EndRedoes
EndUndoRedoHistory
Fore
SplineSet
46 0 m 1
 52 55 l 1
 460 623 l 1
 116 623 l 1
 123 711 l 1
 607 711 l 1
 603 658 l 1
 189 88 l 1
 552 88 l 1
 544 0 l 1
 46 0 l 1
EndSplineSet
EndChar

StartChar: a
Encoding: 65 97 126
Width: 617
VWidth: 0
Flags: MW
AnchorPoint: "ogonek" 490 -0 basechar 0
LayerCount: 2
UndoRedoHistory
Layer: 1
Undoes
EndUndoes
Redoes
EndRedoes
EndUndoRedoHistory
Fore
SplineSet
69 225 m 0
 69 378 165 513 323 513 c 0
 414 513 473 461 484 401 c 1
 490 501 l 1
 587 501 l 1
 543 0 l 1
 444 0 l 1
 457 106 l 1
 436 39 374 -11 285 -11 c 0
 139 -11 69 107 69 225 c 0
308 69 m 0
 414 69 471 150 471 284 c 0
 471 374 429 433 337 433 c 0
 228 433 169 341 169 225 c 0
 169 139 209 69 308 69 c 0
EndSplineSet
EndChar

StartChar: acute
Encoding: 115 180 130
Width: 296
VWidth: 0
Flags: MW
LayerCount: 2
UndoRedoHistory
Layer: 1
Undoes
EndUndoes
Redoes
EndRedoes
EndUndoRedoHistory
Fore
SplineSet
59 571 m 1
 192 726 l 1
 319 726 l 1
 145 571 l 1
 59 571 l 1
EndSplineSet
EndChar

StartChar: ae
Encoding: 164 230 132
Width: 841
VWidth: 0
Flags: MW
LayerCount: 2
UndoRedoHistory
Layer: 1
Undoes
EndUndoes
Redoes
EndRedoes
EndUndoRedoHistory
Fore
SplineSet
497 302 m 1
 614 302 l 2
 698 302 734 338 734 373 c 0
 734 404 705 434 656 434 c 0
 577 434 515 373 497 302 c 1
352 226 m 2
 251 226 154 215 154 136 c 0
 154 87 197 69 246 69 c 0
 350 69 386 144 394 226 c 1
 352 226 l 2
229 -12 m 0
 125 -12 64 54 64 126 c 0
 64 281 224 302 371 302 c 2
 400 302 l 1
 400 307 401 313 401 318 c 0
 401 377 374 433 308 433 c 0
 252 433 196 415 149 365 c 1
 117 435 l 1
 162 488 235 514 323 514 c 0
 377 514 450 487 459 396 c 1
 501 488 584 513 656 513 c 0
 756 513 820 444 820 374 c 0
 820 305 757 236 602 236 c 2
 490 236 l 1
 490 229 489 221 489 213 c 0
 489 127 534 69 627 69 c 0
 702 69 763 109 792 131 c 1
 815 54 l 1
 782 30 716 -11 615 -11 c 0
 531 -11 463 36 430 103 c 1
 390 33 320 -12 229 -12 c 0
EndSplineSet
EndChar

StartChar: ampersand
Encoding: 6 38 135
Width: 769
VWidth: 0
Flags: MW
LayerCount: 2
UndoRedoHistory
Layer: 1
Undoes
EndUndoes
Redoes
EndRedoes
EndUndoRedoHistory
Fore
SplineSet
379 642 m 0
 334 642 290 616 290 564 c 0
 290 524 313 488 343 455 c 1
 404 490 450 527 450 581 c 0
 450 625 413 642 379 642 c 0
313 357 m 1
 246 319 195 272 195 190 c 0
 195 121 245 70 328 70 c 0
 400 70 452 100 497 141 c 1
 313 357 l 1
191 562 m 0
 191 668 287 721 382 721 c 0
 466 721 550 680 550 591 c 0
 550 505 483 449 393 397 c 1
 556 206 l 1
 600 270 623 359 630 441 c 1
 724 424 l 1
 714 325 677 215 617 139 c 1
 650 103 688 73 771 53 c 1
 691 -8 l 1
 629 2 586 43 553 79 c 1
 495 26 417 -13 321 -13 c 0
 187 -13 93 57 93 177 c 0
 93 300 166 362 264 417 c 1
 225 464 191 506 191 562 c 0
EndSplineSet
EndChar

StartChar: approxequal
Encoding: 428 8776 137
Width: 659
VWidth: 0
Flags: MW
LayerCount: 2
UndoRedoHistory
Layer: 1
Undoes
EndUndoes
Redoes
EndRedoes
EndUndoRedoHistory
Fore
SplineSet
176 297 m 1
 101 314 l 1
 127 398 187 450 266 450 c 0
 309 450 343 433 385 407 c 0
 423 384 452 372 472 372 c 0
 506 372 532 401 554 452 c 1
 625 435 l 1
 600 353 547 299 464 299 c 0
 421 299 385 315 335 346 c 0
 307 364 282 377 258 377 c 0
 220 377 195 344 176 297 c 1
160 120 m 1
 86 140 l 1
 115 223 173 275 251 275 c 0
 297 275 338 254 375 233 c 1
 409 217 437 197 458 197 c 0
 492 197 516 227 539 278 c 1
 610 259 l 1
 584 178 534 124 449 124 c 0
 409 124 371 141 322 171 c 0
 294 187 266 201 244 201 c 0
 204 201 178 170 160 120 c 1
EndSplineSet
EndChar

StartChar: asciicircum
Encoding: 62 94 139
Width: 635
VWidth: 0
Flags: MW
LayerCount: 2
UndoRedoHistory
Layer: 1
Undoes
EndUndoes
Redoes
EndRedoes
EndUndoRedoHistory
Fore
SplineSet
77 279 m 1
 352 711 l 1
 415 711 l 1
 617 279 l 1
 519 279 l 1
 373 602 l 1
 176 279 l 1
 77 279 l 1
EndSplineSet
EndChar

StartChar: asciitilde
Encoding: 94 126 140
Width: 648
VWidth: 0
Flags: MW
LayerCount: 2
UndoRedoHistory
Layer: 1
Undoes
EndUndoes
Redoes
EndRedoes
EndUndoRedoHistory
Fore
SplineSet
163 177 m 1
 91 212 l 1
 112 283 169 343 253 343 c 0
 293 343 339 322 380 304 c 0
 398 297 446 274 464 274 c 0
 499 274 529 317 543 361 c 1
 622 336 l 1
 596 253 540 193 458 193 c 0
 428 193 388 210 349 229 c 1
 332 236 274 263 248 263 c 0
 205 263 178 223 163 177 c 1
EndSplineSet
EndChar

StartChar: asterisk
Encoding: 10 42 141
Width: 534
VWidth: 0
Flags: MW
LayerCount: 2
UndoRedoHistory
Layer: 1
Undoes
EndUndoes
Redoes
EndRedoes
EndUndoRedoHistory
Fore
SplineSet
378 340 m 1
 311 463 l 1
 222 341 l 1
 151 391 l 1
 259 504 l 1
 130 550 l 1
 163 626 l 1
 286 568 l 1
 283 711 l 1
 375 711 l 1
 352 569 l 1
 474 627 l 1
 503 553 l 1
 369 505 l 1
 458 388 l 1
 378 340 l 1
EndSplineSet
EndChar

StartChar: at
Encoding: 32 64 142
Width: 840
VWidth: 0
Flags: MW
LayerCount: 2
UndoRedoHistory
Layer: 1
Undoes
EndUndoes
Redoes
EndRedoes
EndUndoRedoHistory
Fore
SplineSet
511 659 m 0
 331 659 163 521 163 301 c 0
 163 128 291 27 450 27 c 0
 531 27 613 53 684 102 c 1
 714 60 l 1
 640 -2 540 -40 438 -40 c 0
 230 -40 82 94 82 296 c 0
 82 553 288 721 511 721 c 0
 697 721 826 600 826 424 c 0
 826 271 729 127 617 127 c 0
 554 127 524 164 524 217 c 0
 524 224 525 232 526 239 c 1
 492 179 442 134 381 134 c 0
 313 134 254 184 254 284 c 0
 254 439 387 564 491 564 c 0
 536 564 572 540 584 492 c 1
 598 546 l 1
 682 546 l 1
 630 363 l 2
 610 295 598 265 598 231 c 0
 598 202 609 187 630 187 c 0
 688 187 759 296 759 423 c 0
 759 572 652 659 511 659 c 0
495 484 m 0
 417 484 345 373 345 281 c 0
 345 239 365 210 405 210 c 0
 478 210 548 316 548 421 c 0
 548 461 533 484 495 484 c 0
EndSplineSet
EndChar

StartChar: b
Encoding: 66 98 144
Width: 618
VWidth: 0
Flags: MW
LayerCount: 2
UndoRedoHistory
Layer: 1
Undoes
EndUndoes
Redoes
EndRedoes
EndUndoRedoHistory
Fore
SplineSet
197 229 m 0
 197 133 245 69 336 69 c 0
 432 69 492 160 492 282 c 0
 492 371 449 433 365 433 c 0
 264 433 197 349 197 229 c 0
348 -11 m 0
 245 -11 198 60 185 90 c 1
 178 0 l 1
 76 0 l 1
 76 0 88 88 92 132 c 2
 143 721 l 1
 242 721 l 1
 215 418 l 1
 238 464 303 513 389 513 c 0
 514 513 596 419 596 284 c 0
 596 106 479 -11 348 -11 c 0
EndSplineSet
EndChar

StartChar: backslash
Encoding: 60 92 145
Width: 402
VWidth: 0
Flags: MW
LayerCount: 2
UndoRedoHistory
Layer: 1
Undoes
EndUndoes
Redoes
EndRedoes
EndUndoRedoHistory
Fore
SplineSet
311 -21 m 1
 74 711 l 1
 177 711 l 1
 413 -21 l 1
 311 -21 l 1
EndSplineSet
EndChar

StartChar: bar
Encoding: 92 124 146
Width: 381
VWidth: 0
Flags: MW
LayerCount: 2
UndoRedoHistory
Layer: 1
Undoes
EndUndoes
Redoes
EndRedoes
EndUndoRedoHistory
Fore
SplineSet
130 -231 m 1
 216 746 l 1
 311 746 l 1
 225 -231 l 1
 130 -231 l 1
EndSplineSet
EndChar

StartChar: braceleft
Encoding: 91 123 147
Width: 338
VWidth: 0
Flags: MW
LayerCount: 2
UndoRedoHistory
Layer: 1
Undoes
EndUndoes
Redoes
EndRedoes
EndUndoRedoHistory
Fore
SplineSet
313 -102 m 1
 193 -101 139 -51 139 35 c 0
 139 41 140 48 140 54 c 2
 150 166 l 2
 150 174 151 181 151 188 c 0
 151 242 128 272 74 275 c 1
 81 347 l 1
 135 349 168 384 174 445 c 2
 184 557 l 2
 192 653 246 721 385 721 c 1
 379 645 l 1
 319 644 291 610 285 542 c 2
 274 420 l 2
 269 360 224 325 177 309 c 1
 221 289 253 247 253 193 c 0
 253 189 252 186 252 182 c 2
 243 64 l 2
 243 58 242 53 242 48 c 0
 242 -12 276 -24 320 -24 c 1
 313 -102 l 1
EndSplineSet
EndChar

StartChar: braceright
Encoding: 93 125 148
Width: 392
VWidth: 0
Flags: MW
LayerCount: 2
UndoRedoHistory
Layer: 1
Undoes
EndUndoes
Redoes
EndRedoes
EndUndoRedoHistory
Fore
SplineSet
49 -104 m 1
 55 -26 l 1
 115 -26 144 9 150 77 c 2
 161 199 l 2
 166 259 211 295 257 311 c 1
 213 331 182 372 182 426 c 0
 182 430 182 434 182 438 c 2
 192 555 l 2
 192 561 193 566 193 571 c 0
 193 632 159 644 115 644 c 1
 122 721 l 1
 241 720 295 671 295 585 c 0
 295 579 294 572 294 565 c 2
 285 453 l 2
 285 446 284 439 284 432 c 0
 284 378 305 347 360 344 c 1
 354 272 l 1
 300 270 265 235 260 174 c 2
 251 62 l 2
 243 -33 189 -104 49 -104 c 1
EndSplineSet
EndChar

StartChar: bracketleft
Encoding: 59 91 149
Width: 336
VWidth: 0
Flags: MW
LayerCount: 2
UndoRedoHistory
Layer: 1
Undoes
EndUndoes
Redoes
EndRedoes
EndUndoRedoHistory
Fore
SplineSet
77 -113 m 1
 149 711 l 1
 351 711 l 1
 344 636 l 1
 242 636 l 1
 184 -38 l 1
 286 -38 l 1
 279 -113 l 1
 77 -113 l 1
EndSplineSet
EndChar

StartChar: bracketright
Encoding: 61 93 150
Width: 329
VWidth: 0
Flags: MW
LayerCount: 2
UndoRedoHistory
Layer: 1
Undoes
EndUndoes
Redoes
EndRedoes
EndUndoRedoHistory
Fore
SplineSet
40 -113 m 1
 47 -38 l 1
 147 -38 l 1
 207 636 l 1
 105 636 l 1
 112 711 l 1
 313 711 l 1
 241 -113 l 1
 40 -113 l 1
EndSplineSet
EndChar

StartChar: breve
Encoding: 365 728 151
Width: 306
VWidth: 0
Flags: MW
LayerCount: 2
UndoRedoHistory
Layer: 1
Undoes
EndUndoes
Redoes
EndRedoes
EndUndoRedoHistory
Fore
SplineSet
209 582 m 0
 123 582 72 623 73 711 c 1
 138 711 l 1
 140 664 177 650 213 650 c 0
 249 650 290 666 302 711 c 1
 365 711 l 1
 351 624 293 582 209 582 c 0
EndSplineSet
EndChar

StartChar: brokenbar
Encoding: 101 166 152
Width: 244
VWidth: 0
Flags: MW
LayerCount: 2
UndoRedoHistory
Layer: 1
Undoes
EndUndoes
Redoes
EndRedoes
EndUndoRedoHistory
Fore
SplineSet
119 320 m 1
 158 711 l 1
 237 711 l 1
 198 320 l 1
 119 320 l 1
73 -176 m 1
 110 213 l 1
 189 213 l 1
 152 -176 l 1
 73 -176 l 1
EndSplineSet
EndChar

StartChar: bullet
Encoding: 409 8226 153
Width: 482
VWidth: 0
Flags: MW
LayerCount: 2
UndoRedoHistory
Layer: 1
Undoes
EndUndoes
Redoes
EndRedoes
EndUndoRedoHistory
Fore
SplineSet
437 351 m 0
 437 257 352 182 257 182 c 0
 166 182 105 246 105 323 c 0
 105 417 191 493 285 493 c 0
 374 493 437 429 437 351 c 0
EndSplineSet
EndChar

StartChar: c
Encoding: 67 99 154
Width: 506
VWidth: 0
Flags: MW
LayerCount: 2
UndoRedoHistory
Layer: 1
Undoes
EndUndoes
Redoes
EndRedoes
EndUndoRedoHistory
Fore
SplineSet
348 433 m 0
 243 433 172 351 172 224 c 0
 172 129 226 69 316 69 c 0
 375 69 425 94 455 115 c 1
 479 43 l 1
 429 7 369 -11 300 -11 c 0
 153 -11 68 85 68 218 c 0
 68 389 185 513 344 513 c 0
 416 513 477 491 512 449 c 1
 465 386 l 1
 438 415 401 433 348 433 c 0
EndSplineSet
EndChar

StartChar: caron
Encoding: 363 711 156
Width: 341
VWidth: 0
Flags: MW
LayerCount: 2
UndoRedoHistory
Layer: 1
Undoes
EndUndoes
Redoes
EndRedoes
EndUndoRedoHistory
Fore
SplineSet
179 549 m 1
 60 736 l 1
 155 736 l 1
 227 612 l 1
 309 736 l 1
 408 736 l 1
 265 549 l 1
 179 549 l 1
EndSplineSet
EndChar

StartChar: cedilla
Encoding: 118 184 161
Width: 258
VWidth: 0
Flags: MW
AnchorPoint: "bot" 112 0 mark 0
LayerCount: 2
UndoRedoHistory
Layer: 1
Undoes
EndUndoes
Redoes
EndRedoes
EndUndoRedoHistory
Fore
SplineSet
236 -132 m 0
 236 -197 170 -231 84 -231 c 0
 58 -231 31 -228 4 -222 c 1
 14 -169 l 1
 33 -173 57 -177 79 -177 c 0
 118 -177 150 -166 150 -130 c 0
 150 -103 123 -85 81 -85 c 0
 78 -85 70 -85 67 -85 c 1
 91 12 l 1
 142 12 l 1
 130 -46 l 1
 198 -49 236 -89 236 -132 c 0
EndSplineSet
EndChar

StartChar: cent
Encoding: 97 162 162
Width: 543
VWidth: 0
Flags: MW
LayerCount: 2
UndoRedoHistory
Layer: 1
Undoes
EndUndoes
Redoes
EndRedoes
EndUndoRedoHistory
Fore
SplineSet
380 443 m 1
 348 79 l 1
 401 82 445 106 473 125 c 1
 497 53 l 1
 453 21 401 4 341 -0 c 1
 332 -100 l 1
 283 -100 l 1
 292 0 l 1
 161 11 86 103 86 228 c 0
 86 390 191 510 338 522 c 1
 347 619 l 1
 395 619 l 1
 387 522 l 1
 448 518 499 496 530 459 c 1
 483 396 l 1
 458 422 426 440 380 443 c 1
299 82 m 1
 331 440 l 1
 246 424 190 346 190 234 c 0
 190 152 230 96 299 82 c 1
EndSplineSet
EndChar

StartChar: circumflex
Encoding: 362 710 163
Width: 341
VWidth: 0
Flags: MW
LayerCount: 2
UndoRedoHistory
Layer: 1
Undoes
EndUndoes
Redoes
EndRedoes
EndUndoRedoHistory
Fore
SplineSet
54 549 m 1
 192 736 l 1
 279 736 l 1
 388 549 l 1
 303 549 l 1
 232 671 l 1
 138 549 l 1
 54 549 l 1
EndSplineSet
EndChar

StartChar: colon
Encoding: 26 58 164
Width: 264
VWidth: 0
Flags: MW
LayerCount: 2
UndoRedoHistory
Layer: 1
Undoes
EndUndoes
Redoes
EndRedoes
EndUndoRedoHistory
Fore
SplineSet
80 0 m 1
 90 116 l 1
 204 116 l 1
 194 0 l 1
 80 0 l 1
112 421 m 1
 122 537 l 1
 236 537 l 1
 226 421 l 1
 112 421 l 1
EndSplineSet
EndChar

StartChar: comma
Encoding: 12 44 165
Width: 256
VWidth: 0
Flags: MW
LayerCount: 2
UndoRedoHistory
Layer: 1
Undoes
EndUndoes
Redoes
EndRedoes
EndUndoRedoHistory
Fore
SplineSet
24 -133 m 1
 103 121 l 1
 211 121 l 1
 106 -133 l 1
 24 -133 l 1
EndSplineSet
EndChar

StartChar: commaaccent
Encoding: 438 -1 166
Width: 263
VWidth: 0
Flags: MW
LayerCount: 2
UndoRedoHistory
Layer: 1
Undoes
EndUndoes
Redoes
EndRedoes
EndUndoRedoHistory
Fore
SplineSet
33 -281 m 1
 107 -45 l 1
 220 -45 l 1
 116 -281 l 1
 33 -281 l 1
EndSplineSet
EndChar

StartChar: copyright
Encoding: 104 169 167
Width: 893
VWidth: 0
Flags: MW
LayerCount: 2
UndoRedoHistory
Layer: 1
Undoes
EndUndoes
Redoes
EndRedoes
EndUndoRedoHistory
Fore
SplineSet
508 667 m 0
 317 667 160 522 160 327 c 0
 160 166 279 42 454 42 c 0
 644 42 802 190 802 384 c 0
 802 546 682 667 508 667 c 0
512 725 m 0
 720 725 868 575 868 387 c 0
 868 162 673 -13 449 -13 c 0
 240 -13 93 136 93 324 c 0
 93 550 289 725 512 725 c 0
509 501 m 0
 417 501 352 431 352 339 c 0
 352 264 400 207 489 207 c 0
 526 207 566 218 606 242 c 1
 623 175 l 1
 576 146 524 132 472 132 c 0
 351 132 262 214 262 333 c 0
 262 480 377 576 513 576 c 0
 564 576 611 561 653 530 c 1
 627 463 l 1
 590 489 550 501 509 501 c 0
EndSplineSet
EndChar

StartChar: currency
Encoding: 99 164 168
Width: 594
VWidth: 0
Flags: MW
LayerCount: 2
UndoRedoHistory
Layer: 1
Undoes
EndUndoes
Redoes
EndRedoes
EndUndoRedoHistory
Fore
SplineSet
370 652 m 0
 282 652 208 582 208 487 c 0
 208 409 263 349 343 349 c 0
 431 349 504 421 504 516 c 0
 504 594 450 652 370 652 c 0
548 518 m 0
 548 462 528 417 494 381 c 1
 577 291 l 1
 549 266 l 1
 466 356 l 1
 430 329 387 312 340 312 c 0
 293 312 252 329 221 357 c 1
 121 266 l 1
 99 291 l 1
 198 382 l 1
 177 410 164 445 164 484 c 0
 164 542 187 588 222 624 c 1
 135 721 l 1
 163 744 l 1
 250 648 l 1
 285 673 328 688 373 688 c 0
 418 688 457 673 488 648 c 1
 591 744 l 1
 614 721 l 1
 511 625 l 1
 534 596 548 559 548 518 c 0
EndSplineSet
EndChar

StartChar: d
Encoding: 68 100 169
Width: 611
VWidth: 0
Flags: MW
LayerCount: 2
UndoRedoHistory
Layer: 1
Undoes
EndUndoes
Redoes
EndRedoes
EndUndoRedoHistory
Fore
SplineSet
333 433 m 0
 233 433 173 344 173 223 c 0
 173 133 215 69 300 69 c 0
 401 69 460 163 460 285 c 0
 460 372 417 433 333 433 c 0
68 217 m 0
 68 388 172 513 329 513 c 0
 403 513 454 477 473 436 c 1
 498 721 l 1
 597 721 l 1
 545 129 l 2
 543 104 542 75 538 0 c 1
 436 0 l 1
 442 80 l 1
 421 36 365 -11 278 -11 c 0
 156 -11 68 76 68 217 c 0
EndSplineSet
EndChar

StartChar: dagger
Encoding: 407 8224 170
Width: 499
VWidth: 0
Flags: MW
LayerCount: 2
UndoRedoHistory
Layer: 1
Undoes
EndUndoes
Redoes
EndRedoes
EndUndoRedoHistory
Fore
SplineSet
186 38 m 1
 221 445 l 1
 63 445 l 1
 70 524 l 1
 228 524 l 1
 244 706 l 1
 329 706 l 1
 313 524 l 1
 476 524 l 1
 469 445 l 1
 303 445 l 1
 267 38 l 1
 186 38 l 1
EndSplineSet
EndChar

StartChar: daggerdbl
Encoding: 408 8225 171
Width: 522
VWidth: 0
Flags: MW
LayerCount: 2
UndoRedoHistory
Layer: 1
Undoes
EndUndoes
Redoes
EndRedoes
EndUndoRedoHistory
Fore
SplineSet
197 -3 m 1
 222 202 l 1
 55 202 l 1
 62 272 l 1
 228 272 l 1
 244 453 l 1
 80 453 l 1
 86 526 l 1
 250 526 l 1
 259 706 l 1
 350 706 l 1
 330 526 l 1
 495 526 l 1
 489 453 l 1
 323 453 l 1
 308 272 l 1
 469 272 l 1
 462 202 l 1
 302 202 l 1
 288 -3 l 1
 197 -3 l 1
EndSplineSet
EndChar

StartChar: uni030F
Encoding: 372 783 172
Width: 473
VWidth: 0
Flags: MW
LayerCount: 2
UndoRedoHistory
Layer: 1
Undoes
EndUndoes
Redoes
EndRedoes
EndUndoRedoHistory
Fore
SplineSet
339 573 m 1
 218 726 l 1
 304 726 l 1
 396 573 l 1
 339 573 l 1
178 573 m 1
 57 726 l 1
 143 726 l 1
 237 573 l 1
 178 573 l 1
EndSplineSet
EndChar

StartChar: dcroat
Encoding: 207 273 174
Width: 612
VWidth: 0
Flags: MW
LayerCount: 2
UndoRedoHistory
Layer: 1
Undoes
EndUndoes
Redoes
EndRedoes
EndUndoRedoHistory
Fore
SplineSet
345 596 m 1
 352 663 l 1
 651 663 l 1
 645 596 l 1
 345 596 l 1
EndSplineSet
Refer: 169 100 N 1 0 0 1 0 0 2
EndChar

StartChar: degree
Encoding: 111 176 175
Width: 412
VWidth: 0
Flags: MW
LayerCount: 2
UndoRedoHistory
Layer: 1
Undoes
EndUndoes
Redoes
EndRedoes
EndUndoRedoHistory
Fore
SplineSet
412 590 m 0
 412 507 346 430 249 430 c 0
 163 430 111 491 111 562 c 0
 111 645 176 721 274 721 c 0
 360 721 412 661 412 590 c 0
267 660 m 0
 214 660 182 616 182 568 c 0
 182 528 206 494 253 494 c 0
 307 494 338 537 338 585 c 0
 338 625 313 660 267 660 c 0
EndSplineSet
EndChar

StartChar: dieresis
Encoding: 103 168 176
Width: 362
VWidth: 0
Flags: MW
LayerCount: 2
UndoRedoHistory
Layer: 1
Undoes
EndUndoes
Redoes
EndRedoes
EndUndoRedoHistory
Fore
SplineSet
280 592 m 1
 289 687 l 1
 388 687 l 1
 380 592 l 1
 280 592 l 1
87 592 m 1
 96 687 l 1
 195 687 l 1
 187 592 l 1
 87 592 l 1
EndSplineSet
EndChar

StartChar: divide
Encoding: 181 247 177
Width: 659
VWidth: 0
Flags: MW
LayerCount: 2
UndoRedoHistory
Layer: 1
Undoes
EndUndoes
Redoes
EndRedoes
EndUndoRedoHistory
Fore
SplineSet
303 419 m 1
 313 535 l 1
 438 535 l 1
 427 419 l 1
 303 419 l 1
103 229 m 1
 110 312 l 1
 599 312 l 1
 592 229 l 1
 103 229 l 1
267 0 m 1
 277 118 l 1
 402 118 l 1
 392 0 l 1
 267 0 l 1
EndSplineSet
EndChar

StartChar: dollar
Encoding: 4 36 178
Width: 590
VWidth: 0
Flags: MW
LayerCount: 2
UndoRedoHistory
Layer: 1
Undoes
EndUndoes
Redoes
EndRedoes
EndUndoRedoHistory
Fore
SplineSet
327 422 m 1
 345 634 l 1
 281 627 222 599 222 527 c 0
 222 473 260 448 327 422 c 1
368 407 m 1
 485 365 565 318 565 209 c 0
 565 61 456 -2 331 -10 c 1
 324 -95 l 1
 281 -95 l 1
 288 -11 l 1
 144 -6 71 70 71 70 c 1
 122 144 l 1
 122 144 199 82 296 77 c 1
 317 319 l 1
 311 321 305 324 298 326 c 0
 192 363 112 410 112 514 c 0
 112 651 221 719 353 724 c 1
 359 792 l 1
 401 792 l 1
 395 721 l 1
 536 713 584 647 584 647 c 1
 526 579 l 1
 526 579 482 632 387 636 c 1
 368 407 l 1
359 303 m 1
 339 79 l 1
 415 87 457 127 457 198 c 0
 457 247 423 276 359 303 c 1
EndSplineSet
EndChar

StartChar: dotaccent
Encoding: 366 729 179
Width: 255
VWidth: 0
Flags: MW
LayerCount: 2
UndoRedoHistory
Layer: 1
Undoes
EndUndoes
Redoes
EndRedoes
EndUndoRedoHistory
Fore
SplineSet
137 606 m 1
 145 701 l 1
 242 701 l 1
 234 606 l 1
 137 606 l 1
EndSplineSet
EndChar

StartChar: uni0307
Encoding: 371 775 180
Width: 255
VWidth: 0
Flags: MW
LayerCount: 2
UndoRedoHistory
Layer: 1
Undoes
EndUndoes
Redoes
EndRedoes
EndUndoRedoHistory
Fore
SplineSet
143 608 m 1
 149 688 l 1
 226 688 l 1
 220 608 l 1
 143 608 l 1
EndSplineSet
EndChar

StartChar: dotlessi
Encoding: 239 305 181
Width: 256
VWidth: 0
Flags: MW
LayerCount: 2
UndoRedoHistory
Layer: 1
Undoes
EndUndoes
Redoes
EndRedoes
EndUndoRedoHistory
Fore
SplineSet
85 0 m 1
 129 501 l 1
 229 501 l 1
 186 0 l 1
 85 0 l 1
EndSplineSet
EndChar

StartChar: uni0237
Encoding: 361 567 182
Width: 264
VWidth: 0
Flags: MW
LayerCount: 2
UndoRedoHistory
Layer: 1
Undoes
EndUndoes
Redoes
EndRedoes
EndUndoRedoHistory
Fore
SplineSet
19 -191 m 0
 -4 -191 -29 -188 -58 -182 c 1
 -43 -108 l 1
 -24 -112 -8 -115 6 -115 c 0
 71 -115 92 -72 100 23 c 2
 141 501 l 1
 241 501 l 1
 197 7 l 2
 187 -108 145 -191 19 -191 c 0
EndSplineSet
EndChar

StartChar: e
Encoding: 69 101 183
Width: 562
VWidth: 0
Flags: MW
AnchorPoint: "ogonek" 369 0 basechar 0
LayerCount: 2
UndoRedoHistory
Layer: 1
Undoes
EndUndoes
Redoes
EndRedoes
EndUndoRedoHistory
Fore
SplineSet
182 305 m 1
 456 305 l 1
 454 393 400 435 334 435 c 0
 259 435 203 383 182 305 c 1
338 514 m 0
 472 514 541 421 541 293 c 0
 541 270 537 242 536 236 c 1
 174 236 l 1
 174 116 234 69 327 69 c 0
 390 69 451 100 487 125 c 1
 508 51 l 1
 470 23 403 -11 311 -11 c 0
 172 -11 69 81 69 222 c 0
 69 390 182 514 338 514 c 0
EndSplineSet
EndChar

StartChar: eight
Encoding: 24 56 191
Width: 604
VWidth: 0
Flags: MW
LayerCount: 2
UndoRedoHistory
Layer: 1
Undoes
EndUndoes
Redoes
EndRedoes
EndUndoRedoHistory
Fore
SplineSet
365 641 m 0
 294 641 233 602 233 526 c 0
 233 469 275 430 346 414 c 1
 426 432 480 476 480 548 c 0
 480 606 428 641 365 641 c 0
340 333 m 1
 256 316 189 264 189 181 c 0
 189 113 239 73 316 73 c 0
 399 73 465 119 465 205 c 0
 465 268 412 316 340 333 c 1
567 203 m 0
 567 63 440 -11 310 -11 c 0
 184 -11 84 53 84 169 c 0
 84 268 145 338 240 373 c 1
 173 402 131 452 131 523 c 0
 131 652 241 724 373 724 c 0
 499 724 582 661 582 556 c 0
 582 463 528 403 446 372 c 1
 522 342 567 280 567 203 c 0
EndSplineSet
EndChar

StartChar: ellipsis
Encoding: 410 8230 192
Width: 791
VWidth: 0
Flags: MW
LayerCount: 2
UndoRedoHistory
Layer: 1
Undoes
EndUndoes
Redoes
EndRedoes
EndUndoRedoHistory
Fore
SplineSet
581 -3 m 1
 591 114 l 1
 716 114 l 1
 706 -3 l 1
 581 -3 l 1
322 -3 m 1
 332 114 l 1
 457 114 l 1
 447 -3 l 1
 322 -3 l 1
62 -3 m 1
 72 114 l 1
 198 114 l 1
 188 -3 l 1
 62 -3 l 1
EndSplineSet
EndChar

StartChar: emdash
Encoding: 399 8212 194
Width: 1060
VWidth: 0
Flags: MW
LayerCount: 2
UndoRedoHistory
Layer: 1
Undoes
EndUndoes
Redoes
EndRedoes
EndUndoRedoHistory
Fore
SplineSet
24 230 m 1
 32 313 l 1
 1074 313 l 1
 1066 230 l 1
 24 230 l 1
EndSplineSet
EndChar

StartChar: endash
Encoding: 398 8211 195
Width: 529
VWidth: 0
Flags: MW
LayerCount: 2
UndoRedoHistory
Layer: 1
Undoes
EndUndoes
Redoes
EndRedoes
EndUndoRedoHistory
Fore
SplineSet
18 230 m 1
 25 313 l 1
 561 313 l 1
 553 230 l 1
 18 230 l 1
EndSplineSet
EndChar

StartChar: eng
Encoding: 265 331 196
Width: 596
VWidth: 0
Flags: MW
LayerCount: 2
UndoRedoHistory
Layer: 1
Undoes
EndUndoes
Redoes
EndRedoes
EndUndoRedoHistory
Fore
SplineSet
99 -172 m 1
 119 -91 l 1
 174 -107 225 -116 268 -116 c 0
 365 -116 418 -68 427 42 c 2
 447 276 l 2
 449 293 449 309 449 324 c 0
 449 395 393 392 358 433 c 1
 286 433 212 369 207 310 c 2
 180 0 l 1
 81 0 l 1
 111 347 l 2
 117 417 118 473 118 493 c 0
 118 498 118 501 118 501 c 1
 222 501 l 1
 216 430 l 1
 255 486 322 513 384 513 c 0
 498 513 548 451 548 327 c 0
 548 311 548 295 546 277 c 2
 528 61 l 2
 514 -105 429 -194 263 -194 c 0
 215 -194 161 -187 99 -172 c 1
EndSplineSet
EndChar

StartChar: equal
Encoding: 29 61 198
Width: 649
VWidth: 0
Flags: MW
LayerCount: 2
UndoRedoHistory
Layer: 1
Undoes
EndUndoes
Redoes
EndRedoes
EndUndoRedoHistory
Fore
SplineSet
88 134 m 1
 95 215 l 1
 586 215 l 1
 579 134 l 1
 88 134 l 1
104 325 m 1
 112 407 l 1
 602 407 l 1
 595 325 l 1
 104 325 l 1
EndSplineSet
EndChar

StartChar: exclam
Encoding: 1 33 199
Width: 298
VWidth: 0
Flags: MW
LayerCount: 2
UndoRedoHistory
Layer: 1
Undoes
EndUndoes
Redoes
EndRedoes
EndUndoRedoHistory
Fore
SplineSet
147 185 m 1
 164 711 l 1
 281 711 l 1
 206 185 l 1
 147 185 l 1
114 0 m 1
 125 114 l 1
 218 114 l 1
 208 0 l 1
 114 0 l 1
EndSplineSet
EndChar

StartChar: f
Encoding: 70 102 201
Width: 354
VWidth: 0
Flags: MW
LayerCount: 2
UndoRedoHistory
Layer: 1
Undoes
EndUndoes
Redoes
EndRedoes
EndUndoRedoHistory
Fore
SplineSet
117 0 m 1
 155 435 l 1
 64 435 l 1
 70 501 l 1
 161 501 l 1
 165 548 l 1
 178 680 215 727 383 727 c 2
 402 727 l 1
 394 649 l 1
 291 649 273 639 264 545 c 2
 260 501 l 1
 377 501 l 1
 372 435 l 1
 254 435 l 1
 216 0 l 1
 117 0 l 1
EndSplineSet
EndChar

StartChar: f_j
Encoding: 65536 -1 202
Width: 611
VWidth: 0
Flags: MW
LayerCount: 2
UndoRedoHistory
Layer: 1
Undoes
EndUndoes
Redoes
EndRedoes
EndUndoRedoHistory
Fore
SplineSet
585 629 m 1
 498 629 l 1
 506 714 l 1
 593 714 l 1
 585 629 l 1
209 0 m 1
 116 0 l 1
 154 440 l 1
 64 440 l 1
 70 501 l 1
 160 501 l 1
 163 542 l 1
 174 671 202 723 379 724 c 1
 396 724 l 1
 390 651 l 1
 369 651 l 1
 272 650 265 635 257 549 c 2
 252 501 l 1
 577 501 l 1
 533 4 l 2
 523 -112 478 -190 360 -190 c 0
 337 -190 313 -189 284 -182 c 1
 298 -112 l 1
 318 -117 336 -118 351 -118 c 0
 416 -118 434 -75 442 22 c 2
 479 440 l 1
 247 440 l 1
 209 0 l 1
EndSplineSet
EndChar

StartChar: five
Encoding: 21 53 203
Width: 604
VWidth: 0
Flags: MW
LayerCount: 2
UndoRedoHistory
Layer: 1
Undoes
EndUndoes
Redoes
EndRedoes
EndUndoRedoHistory
Fore
SplineSet
574 257 m 0
 574 93 454 -11 305 -11 c 0
 226 -11 148 18 93 80 c 1
 151 153 l 1
 194 98 254 77 311 77 c 0
 403 77 468 147 468 249 c 0
 468 334 417 384 354 384 c 0
 312 384 270 367 245 323 c 1
 152 338 l 1
 190 711 l 1
 576 711 l 1
 569 623 l 1
 275 623 l 1
 246 417 l 1
 277 454 328 468 376 468 c 0
 499 468 574 378 574 257 c 0
EndSplineSet
EndChar

StartChar: florin
Encoding: 318 402 204
Width: 533
VWidth: 0
Flags: MW
LayerCount: 2
UndoRedoHistory
Layer: 1
Undoes
EndUndoes
Redoes
EndRedoes
EndUndoRedoHistory
Fore
SplineSet
95 -109 m 0
 87 -109 65 -108 43 -102 c 1
 53 -21 l 1
 59 -23 77 -27 94 -27 c 0
 131 -27 161 4 176 70 c 2
 256 404 l 1
 182 404 l 1
 191 480 l 1
 274 480 l 1
 290 554 l 2
 307 632 340 721 463 721 c 0
 505 721 532 709 543 706 c 1
 535 626 l 1
 526 629 499 636 474 636 c 0
 432 636 410 611 399 562 c 2
 380 480 l 1
 467 480 l 1
 457 404 l 1
 360 404 l 1
 286 88 l 2
 257 -38 207 -109 95 -109 c 0
EndSplineSet
EndChar

StartChar: four
Encoding: 20 52 205
Width: 604
VWidth: 0
Flags: MW
LayerCount: 2
UndoRedoHistory
Layer: 1
Undoes
EndUndoes
Redoes
EndRedoes
EndUndoRedoHistory
Fore
SplineSet
171 270 m 1
 387 270 l 1
 419 605 l 1
 340 490 254 382 171 270 c 1
362 0 m 1
 379 195 l 1
 68 195 l 1
 74 263 l 1
 407 711 l 1
 528 711 l 1
 489 270 l 1
 590 270 l 1
 583 195 l 1
 483 195 l 1
 466 0 l 1
 362 0 l 1
EndSplineSet
EndChar

StartChar: fraction
Encoding: 414 8260 206
Width: 562
VWidth: 0
Flags: MW
LayerCount: 2
UndoRedoHistory
Layer: 1
Undoes
EndUndoes
Redoes
EndRedoes
EndUndoRedoHistory
Fore
SplineSet
17 0 m 1
 516 711 l 1
 612 711 l 1
 113 0 l 1
 17 0 l 1
EndSplineSet
EndChar

StartChar: g
Encoding: 71 103 207
Width: 604
VWidth: 0
Flags: MW
LayerCount: 2
UndoRedoHistory
Layer: 1
Undoes
EndUndoes
Redoes
EndRedoes
EndUndoRedoHistory
Fore
SplineSet
299 90 m 0
 407 90 462 170 462 285 c 0
 462 373 418 433 335 433 c 0
 233 433 174 353 174 233 c 0
 174 145 213 90 299 90 c 0
69 233 m 0
 69 400 176 513 330 513 c 0
 399 513 457 471 473 428 c 1
 480 501 l 1
 584 501 l 1
 584 501 571 422 565 356 c 2
 540 73 l 2
 525 -88 457 -209 257 -209 c 0
 179 -209 115 -190 75 -169 c 1
 96 -82 l 1
 128 -102 182 -126 257 -126 c 0
 366 -126 428 -83 437 18 c 1
 442 86 l 1
 418 42 361 13 284 13 c 0
 158 13 69 98 69 233 c 0
EndSplineSet
EndChar

StartChar: germandbls
Encoding: 157 223 211
Width: 626
VWidth: 0
Flags: MW
LayerCount: 2
UndoRedoHistory
Layer: 1
Undoes
EndUndoes
Redoes
EndRedoes
EndUndoRedoHistory
Fore
SplineSet
386 399 m 1
 488 365 601 309 601 187 c 0
 601 64 496 -11 394 -11 c 0
 337 -11 277 14 236 73 c 1
 283 141 l 1
 321 91 364 69 398 69 c 0
 445 69 489 106 489 171 c 0
 489 253 404 305 311 361 c 1
 324 434 l 1
 386 460 447 513 447 579 c 0
 447 624 413 651 362 651 c 0
 284 651 240 576 233 498 c 0
 222 367 203 129 192 0 c 1
 92 0 l 1
 137 514 l 2
 149 643 234 730 369 730 c 0
 488 730 559 666 559 586 c 0
 559 506 481 444 419 415 c 0
 407 409 396 403 386 399 c 1
EndSplineSet
EndChar

StartChar: grave
Encoding: 64 96 212
Width: 292
VWidth: 0
Flags: MW
LayerCount: 2
UndoRedoHistory
Layer: 1
Undoes
EndUndoes
Redoes
EndRedoes
EndUndoRedoHistory
Fore
SplineSet
203 571 m 1
 50 726 l 1
 179 726 l 1
 289 571 l 1
 203 571 l 1
EndSplineSet
EndChar

StartChar: greater
Encoding: 30 62 213
Width: 648
VWidth: 0
Flags: MW
LayerCount: 2
UndoRedoHistory
Layer: 1
Undoes
EndUndoes
Redoes
EndRedoes
EndUndoRedoHistory
Fore
SplineSet
103 21 m 1
 111 114 l 1
 470 271 l 1
 142 441 l 1
 150 532 l 1
 603 293 l 1
 598 241 l 1
 103 21 l 1
EndSplineSet
EndChar

StartChar: greaterequal
Encoding: 431 8805 214
Width: 659
VWidth: 0
Flags: MW
LayerCount: 2
UndoRedoHistory
Layer: 1
Undoes
EndUndoes
Redoes
EndRedoes
EndUndoRedoHistory
Fore
SplineSet
93 0 m 1
 100 76 l 1
 583 76 l 1
 576 0 l 1
 93 0 l 1
110 116 m 1
 118 204 l 1
 494 342 l 1
 144 497 l 1
 151 582 l 1
 604 365 l 1
 600 318 l 1
 110 116 l 1
EndSplineSet
EndChar

StartChar: guillemotleft
Encoding: 106 171 215
Width: 564
VWidth: 0
Flags: MW
LayerCount: 2
UndoRedoHistory
Layer: 1
Undoes
EndUndoes
Redoes
EndRedoes
EndUndoRedoHistory
Fore
SplineSet
396 81 m 1
 279 264 l 1
 431 448 l 1
 521 448 l 1
 375 264 l 1
 486 81 l 1
 396 81 l 1
202 81 m 1
 85 264 l 1
 237 448 l 1
 329 448 l 1
 181 264 l 1
 292 81 l 1
 202 81 l 1
EndSplineSet
EndChar

StartChar: guillemotright
Encoding: 121 187 216
Width: 564
VWidth: 0
Flags: MW
LayerCount: 2
UndoRedoHistory
Layer: 1
Undoes
EndUndoes
Redoes
EndRedoes
EndUndoRedoHistory
Fore
SplineSet
283 81 m 1
 428 265 l 1
 319 448 l 1
 407 448 l 1
 524 265 l 1
 372 81 l 1
 283 81 l 1
73 81 m 1
 220 265 l 1
 109 448 l 1
 199 448 l 1
 317 265 l 1
 165 81 l 1
 73 81 l 1
EndSplineSet
EndChar

StartChar: guilsinglleft
Encoding: 412 8249 217
Width: 313
VWidth: 0
Flags: MW
LayerCount: 2
UndoRedoHistory
Layer: 1
Undoes
EndUndoes
Redoes
EndRedoes
EndUndoRedoHistory
Fore
SplineSet
169 81 m 1
 52 264 l 1
 204 448 l 1
 305 448 l 1
 158 264 l 1
 269 81 l 1
 169 81 l 1
EndSplineSet
EndChar

StartChar: guilsinglright
Encoding: 413 8250 218
Width: 313
VWidth: 0
Flags: MW
LayerCount: 2
UndoRedoHistory
Layer: 1
Undoes
EndUndoes
Redoes
EndRedoes
EndUndoRedoHistory
Fore
SplineSet
53 81 m 1
 198 265 l 1
 89 448 l 1
 186 448 l 1
 305 265 l 1
 151 81 l 1
 53 81 l 1
EndSplineSet
EndChar

StartChar: h
Encoding: 72 104 219
Width: 591
VWidth: 0
Flags: MW
LayerCount: 2
UndoRedoHistory
Layer: 1
Undoes
EndUndoes
Redoes
EndRedoes
EndUndoRedoHistory
Fore
SplineSet
75 0 m 1
 138 721 l 1
 238 721 l 1
 212 427 l 1
 250 486 318 513 380 513 c 0
 504 513 545 424 545 327 c 0
 545 316 544 306 543 295 c 2
 518 0 l 1
 417 0 l 1
 443 295 l 2
 444 306 445 316 445 325 c 0
 445 397 418 433 356 433 c 0
 276 433 208 375 201 295 c 2
 175 0 l 1
 75 0 l 1
EndSplineSet
EndChar

StartChar: hbar
Encoding: 229 295 220
Width: 585
VWidth: 0
Flags: MW
LayerCount: 2
UndoRedoHistory
Layer: 1
Undoes
EndUndoes
Redoes
EndRedoes
EndUndoRedoHistory
Fore
SplineSet
49 581 m 1
 56 651 l 1
 347 651 l 1
 340 581 l 1
 49 581 l 1
EndSplineSet
Refer: 219 104 N 1 0 0 1 0 0 2
EndChar

StartChar: hungarumlaut
Encoding: 370 733 222
Width: 473
VWidth: 0
Flags: MW
LayerCount: 2
UndoRedoHistory
Layer: 1
Undoes
EndUndoes
Redoes
EndRedoes
EndUndoRedoHistory
Fore
SplineSet
279 560 m 1
 406 725 l 1
 521 725 l 1
 353 560 l 1
 279 560 l 1
115 560 m 1
 230 725 l 1
 341 725 l 1
 186 560 l 1
 115 560 l 1
EndSplineSet
EndChar

StartChar: hyphen
Encoding: 13 45 223
Width: 360
VWidth: 0
Flags: MW
LayerCount: 2
UndoRedoHistory
Layer: 1
Undoes
EndUndoes
Redoes
EndRedoes
EndUndoRedoHistory
Fore
SplineSet
64 230 m 1
 71 309 l 1
 347 309 l 1
 340 230 l 1
 64 230 l 1
EndSplineSet
EndChar

StartChar: i
Encoding: 73 105 224
Width: 271
VWidth: 0
Flags: MW
AnchorPoint: "ogonek" 136 0 basechar 0
LayerCount: 2
UndoRedoHistory
Layer: 1
Undoes
EndUndoes
Redoes
EndRedoes
EndUndoRedoHistory
Fore
SplineSet
143 621 m 1
 151 711 l 1
 246 711 l 1
 238 621 l 1
 143 621 l 1
86 0 m 1
 130 501 l 1
 229 501 l 1
 185 0 l 1
 86 0 l 1
EndSplineSet
EndChar

StartChar: infinity
Encoding: 426 8734 232
Width: 841
VWidth: 0
Flags: MW
LayerCount: 2
UndoRedoHistory
Layer: 1
Undoes
EndUndoes
Redoes
EndRedoes
EndUndoRedoHistory
Fore
SplineSet
626 173 m 0
 699 173 738 230 744 302 c 0
 744 305 744 308 744 311 c 0
 744 363 704 405 644 405 c 0
 580 405 519 349 473 289 c 1
 524 213 566 173 626 173 c 0
251 405 m 0
 179 405 130 348 130 279 c 0
 130 224 169 173 235 173 c 0
 298 173 356 225 406 288 c 1
 367 354 319 405 251 405 c 0
812 310 m 0
 812 194 719 115 620 115 c 0
 548 115 492 156 435 238 c 1
 373 166 307 115 229 115 c 0
 130 115 66 190 66 281 c 0
 66 384 160 461 257 461 c 0
 337 461 395 412 445 338 c 1
 506 410 569 461 651 461 c 0
 751 461 812 399 812 310 c 0
EndSplineSet
EndChar

StartChar: integral
Encoding: 427 8747 233
Width: 358
VWidth: 0
Flags: MW
LayerCount: 2
UndoRedoHistory
Layer: 1
Undoes
EndUndoes
Redoes
EndRedoes
EndUndoRedoHistory
Fore
SplineSet
63 -198 m 0
 37 -198 18 -194 -10 -187 c 1
 -3 -106 l 1
 17 -114 41 -118 57 -118 c 0
 112 -118 124 -84 129 -23 c 2
 187 629 l 2
 196 735 243 814 354 814 c 0
 377 814 418 806 429 803 c 1
 422 721 l 1
 401 731 378 734 362 734 c 0
 306 734 292 701 287 640 c 2
 230 -13 l 2
 221 -119 175 -198 63 -198 c 0
EndSplineSet
EndChar

StartChar: j
Encoding: 74 106 236
Width: 271
VWidth: 0
Flags: MW
LayerCount: 2
UndoRedoHistory
Layer: 1
Undoes
EndUndoes
Redoes
EndRedoes
EndUndoRedoHistory
Fore
SplineSet
157 621 m 1
 165 711 l 1
 262 711 l 1
 254 621 l 1
 157 621 l 1
24 -190 m 0
 1 -190 -23 -188 -52 -182 c 1
 -38 -108 l 1
 -19 -112 -2 -114 12 -114 c 0
 77 -114 96 -75 104 21 c 2
 146 501 l 1
 246 501 l 1
 203 5 l 2
 193 -110 150 -190 24 -190 c 0
EndSplineSet
EndChar

StartChar: k
Encoding: 75 107 238
Width: 533
VWidth: 0
Flags: MW
LayerCount: 2
UndoRedoHistory
Layer: 1
Undoes
EndUndoes
Redoes
EndRedoes
EndUndoRedoHistory
Fore
SplineSet
75 0 m 1
 139 721 l 1
 238 721 l 1
 201 294 l 1
 421 501 l 1
 557 501 l 1
 291 266 l 1
 528 0 l 1
 398 0 l 1
 195 237 l 1
 175 0 l 1
 75 0 l 1
EndSplineSet
EndChar

StartChar: kgreenlandic
Encoding: 246 312 240
Width: 533
VWidth: 0
Flags: MW
LayerCount: 2
UndoRedoHistory
Layer: 1
Undoes
EndUndoes
Redoes
EndRedoes
EndUndoRedoHistory
Fore
SplineSet
74 0 m 1
 118 501 l 1
 217 501 l 1
 198 289 l 1
 419 501 l 1
 555 501 l 1
 278 249 l 1
 316 212 491 37 529 0 c 1
 396 0 l 1
 191 210 l 1
 173 0 l 1
 74 0 l 1
EndSplineSet
EndChar

StartChar: l
Encoding: 76 108 241
Width: 255
VWidth: 0
Flags: MW
LayerCount: 2
UndoRedoHistory
Layer: 1
Undoes
EndUndoes
Redoes
EndRedoes
EndUndoRedoHistory
Fore
SplineSet
82 0 m 1
 145 721 l 1
 244 721 l 1
 181 0 l 1
 82 0 l 1
EndSplineSet
EndChar

StartChar: less
Encoding: 28 60 246
Width: 648
VWidth: 0
Flags: MW
LayerCount: 2
UndoRedoHistory
Layer: 1
Undoes
EndUndoes
Redoes
EndRedoes
EndUndoRedoHistory
Fore
SplineSet
542 19 m 1
 90 252 l 1
 94 301 l 1
 589 529 l 1
 581 437 l 1
 219 275 l 1
 550 109 l 1
 542 19 l 1
EndSplineSet
EndChar

StartChar: lessequal
Encoding: 430 8804 247
Width: 659
VWidth: 0
Flags: MW
LayerCount: 2
UndoRedoHistory
Layer: 1
Undoes
EndUndoes
Redoes
EndRedoes
EndUndoRedoHistory
Fore
SplineSet
66 0 m 1
 73 76 l 1
 559 76 l 1
 552 0 l 1
 66 0 l 1
556 116 m 1
 102 318 l 1
 106 365 l 1
 597 582 l 1
 589 497 l 1
 213 343 l 1
 564 203 l 1
 556 116 l 1
EndSplineSet
EndChar

StartChar: logicalnot
Encoding: 107 172 248
Width: 711
VWidth: 0
Flags: MW
LayerCount: 2
UndoRedoHistory
Layer: 1
Undoes
EndUndoes
Redoes
EndRedoes
EndUndoRedoHistory
Fore
SplineSet
527 112 m 1
 545 311 l 1
 122 311 l 1
 129 394 l 1
 645 394 l 1
 620 112 l 1
 527 112 l 1
EndSplineSet
EndChar

StartChar: lozenge
Encoding: 432 9674 250
Width: 609
VWidth: 0
Flags: MW
LayerCount: 2
UndoRedoHistory
Layer: 1
Undoes
EndUndoes
Redoes
EndRedoes
EndUndoRedoHistory
Fore
SplineSet
264 -21 m 1
 79 344 l 1
 331 711 l 1
 396 711 l 1
 583 345 l 1
 328 -21 l 1
 264 -21 l 1
305 78 m 1
 487 344 l 1
 355 607 l 1
 173 345 l 1
 305 78 l 1
EndSplineSet
EndChar

StartChar: lslash
Encoding: 256 322 251
Width: 253
VWidth: 0
Flags: MW
LayerCount: 2
UndoRedoHistory
Layer: 1
Undoes
EndUndoes
Redoes
EndRedoes
EndUndoRedoHistory
Fore
SplineSet
30 296 m 1
 38 382 l 1
 305 547 l 1
 296 461 l 1
 30 296 l 1
EndSplineSet
Refer: 241 108 N 1 0 0 1 0 0 2
EndChar

StartChar: m
Encoding: 77 109 252
Width: 909
VWidth: 0
Flags: MW
LayerCount: 2
UndoRedoHistory
Layer: 1
Undoes
EndUndoes
Redoes
EndRedoes
EndUndoRedoHistory
Fore
SplineSet
711 513 m 0
 811 513 863 448 863 339 c 0
 863 328 863 317 862 305 c 2
 835 0 l 1
 735 0 l 1
 759 271 l 2
 760 289 762 306 762 323 c 0
 762 383 747 433 680 433 c 0
 600 433 542 366 535 285 c 2
 510 0 l 1
 411 0 l 1
 438 308 l 2
 439 316 438 325 438 333 c 0
 438 388 420 433 359 433 c 0
 284 433 213 370 206 292 c 2
 181 0 l 1
 81 0 l 1
 112 356 l 2
 117 419 119 484 119 501 c 1
 223 501 l 1
 213 411 l 1
 244 470 318 513 388 513 c 0
 455 513 506 476 522 407 c 1
 561 474 636 513 711 513 c 0
EndSplineSet
EndChar

StartChar: macron
Encoding: 110 175 253
Width: 355
VWidth: 0
Flags: MW
LayerCount: 2
UndoRedoHistory
Layer: 1
Undoes
EndUndoes
Redoes
EndRedoes
EndUndoRedoHistory
Fore
SplineSet
83 581 m 1
 89 657 l 1
 381 657 l 1
 375 581 l 1
 83 581 l 1
EndSplineSet
EndChar

StartChar: middot
Encoding: -1 183 254
Width: 444
VWidth: 0
Flags: W
HStem: 513 210<146.813 382.187 165.187 363.813>
VStem: 147 235
LayerCount: 2
Fore
SplineSet
146.813 513 m 1
 165.187 723 l 1
 382.187 723 l 1
 363.813 513 l 1
 146.813 513 l 1
EndSplineSet
EndChar

StartChar: minus
Encoding: 422 8722 255
Width: 659
VWidth: 0
Flags: MW
LayerCount: 2
UndoRedoHistory
Layer: 1
Undoes
EndUndoes
Redoes
EndRedoes
EndUndoRedoHistory
Fore
SplineSet
98 193 m 1
 104 275 l 1
 586 275 l 1
 579 193 l 1
 98 193 l 1
EndSplineSet
EndChar

StartChar: multiply
Encoding: 149 215 256
Width: 606
VWidth: 0
Flags: MW
LayerCount: 2
UndoRedoHistory
Layer: 1
Undoes
EndUndoes
Redoes
EndRedoes
EndUndoRedoHistory
Fore
SplineSet
178 66 m 1
 120 130 l 1
 271 269 l 1
 145 407 l 1
 214 471 l 1
 340 333 l 1
 491 471 l 1
 549 408 l 1
 398 269 l 1
 525 130 l 1
 456 66 l 1
 329 205 l 1
 178 66 l 1
EndSplineSet
EndChar

StartChar: n
Encoding: 78 110 257
Width: 598
VWidth: 0
Flags: MW
LayerCount: 2
UndoRedoHistory
Layer: 1
Undoes
EndUndoes
Redoes
EndRedoes
EndUndoRedoHistory
Fore
SplineSet
82 0 m 1
 112 347 l 2
 118 417 119 473 119 493 c 0
 119 498 119 501 119 501 c 1
 220 501 l 1
 213 410 l 1
 247 472 315 513 393 513 c 0
 502 513 551 452 551 328 c 0
 551 312 549 295 548 277 c 2
 524 0 l 1
 424 0 l 1
 448 276 l 2
 449 294 451 311 451 326 c 0
 451 394 431 433 359 433 c 0
 287 433 213 368 207 302 c 2
 181 0 l 1
 82 0 l 1
EndSplineSet
EndChar

StartChar: nine
Encoding: 25 57 262
Width: 604
VWidth: 0
Flags: MW
LayerCount: 2
UndoRedoHistory
Layer: 1
Undoes
EndUndoes
Redoes
EndRedoes
EndUndoRedoHistory
Fore
SplineSet
359 636 m 0
 271 636 214 566 214 468 c 0
 214 397 248 345 329 345 c 0
 412 345 479 403 479 506 c 0
 479 575 440 636 359 636 c 0
108 460 m 0
 108 612 213 724 366 724 c 0
 506 724 581 625 581 444 c 0
 581 163 449 -12 276 -12 c 0
 221 -12 161 5 98 38 c 1
 141 119 l 1
 187 91 232 77 275 77 c 0
 372 77 453 152 467 314 c 1
 468 337 l 1
 431 281 374 260 309 260 c 0
 183 260 108 340 108 460 c 0
EndSplineSet
EndChar

StartChar: notequal
Encoding: 429 8800 263
Width: 659
VWidth: 0
Flags: MW
LayerCount: 2
UndoRedoHistory
Layer: 1
Undoes
EndUndoes
Redoes
EndRedoes
EndUndoRedoHistory
Fore
SplineSet
233 20 m 1
 155 32 l 1
 224 153 l 1
 92 153 l 1
 86 227 l 1
 268 227 l 1
 339 343 l 1
 109 343 l 1
 103 417 l 1
 381 417 l 1
 457 548 l 1
 537 537 l 1
 468 417 l 1
 608 417 l 1
 614 343 l 1
 426 343 l 1
 354 227 l 1
 592 227 l 1
 597 153 l 1
 311 153 l 1
 233 20 l 1
EndSplineSet
EndChar

StartChar: numbersign
Encoding: 3 35 265
Width: 624
VWidth: 0
Flags: MW
LayerCount: 2
UndoRedoHistory
Layer: 1
Undoes
EndUndoes
Redoes
EndRedoes
EndUndoRedoHistory
Fore
SplineSet
259 270 m 1
 370 270 l 1
 417 443 l 1
 307 443 l 1
 259 270 l 1
103 0 m 1
 160 202 l 1
 40 202 l 1
 51 270 l 1
 178 270 l 1
 183 291 221 422 226 443 c 1
 101 443 l 1
 113 510 l 1
 242 510 l 1
 298 703 l 1
 378 703 l 1
 326 510 l 1
 436 510 l 1
 489 703 l 1
 570 703 l 1
 517 510 l 1
 634 510 l 1
 622 443 l 1
 498 443 l 1
 450 270 l 1
 573 270 l 1
 562 202 l 1
 434 202 l 1
 377 0 l 1
 297 0 l 1
 351 202 l 1
 240 202 l 1
 185 0 l 1
 103 0 l 1
EndSplineSet
EndChar

StartChar: o
Encoding: 79 111 266
Width: 611
VWidth: 0
Flags: MW
AnchorPoint: "ogonek" 329 -1 basechar 0
LayerCount: 2
UndoRedoHistory
Layer: 1
Undoes
EndUndoes
Redoes
EndRedoes
EndUndoRedoHistory
Fore
SplineSet
589 281 m 0
 589 112 475 -11 306 -11 c 0
 159 -11 68 86 68 221 c 0
 68 392 185 513 354 513 c 0
 505 513 589 417 589 281 c 0
345 433 m 0
 239 433 173 347 173 226 c 0
 173 135 219 69 314 69 c 0
 422 69 484 157 484 276 c 0
 484 368 437 433 345 433 c 0
EndSplineSet
EndChar

StartChar: oe
Encoding: 273 339 271
Width: 969
VWidth: 0
Flags: MW
LayerCount: 2
UndoRedoHistory
Layer: 1
Undoes
EndUndoes
Redoes
EndRedoes
EndUndoRedoHistory
Fore
SplineSet
564 305 m 1
 837 305 l 1
 837 307 838 310 838 312 c 0
 838 383 798 435 720 435 c 0
 644 435 580 378 564 305 c 1
335 433 m 0
 229 433 166 339 166 228 c 0
 166 141 209 69 308 69 c 1
 414 69 466 167 466 279 c 0
 466 368 427 433 335 433 c 0
298 -15 m 0
 153 -15 62 92 62 225 c 0
 62 234 62 243 63 252 c 0
 76 396 179 515 345 515 c 0
 450 515 501 451 522 395 c 1
 558 464 634 513 725 513 c 0
 857 513 928 425 928 288 c 0
 928 276 927 263 926 250 c 2
 924 236 l 1
 555 236 l 1
 555 234 555 211 555 210 c 0
 555 123 612 69 697 69 c 0
 784 69 853 116 872 131 c 1
 895 54 l 1
 880 43 805 -11 686 -11 c 0
 599 -11 523 36 499 104 c 1
 472 44 407 -15 298 -15 c 0
EndSplineSet
EndChar

StartChar: ogonek
Encoding: 368 731 272
Width: 248
VWidth: 0
Flags: MW
AnchorPoint: "ogonek" 173 0 mark 0
LayerCount: 2
UndoRedoHistory
Layer: 1
Undoes
EndUndoes
Redoes
EndRedoes
EndUndoRedoHistory
Fore
SplineSet
161 10 m 1
 214 10 l 1
 147 -28 112 -78 112 -117 c 0
 112 -152 140 -177 197 -177 c 0
 205 -177 214 -176 224 -175 c 1
 203 -230 l 1
 196 -231 188 -231 181 -231 c 0
 86 -231 45 -186 45 -133 c 0
 45 -78 89 -16 161 10 c 1
EndSplineSet
EndChar

StartChar: one
Encoding: 17 49 276
Width: 604
VWidth: 0
Flags: MW
LayerCount: 2
UndoRedoHistory
Layer: 1
Undoes
EndUndoes
Redoes
EndRedoes
EndUndoRedoHistory
Fore
SplineSet
152 0 m 1
 159 83 l 1
 282 83 l 1
 327 600 l 1
 287 579 245 561 190 540 c 1
 198 633 l 1
 250 652 309 683 355 708 c 1
 443 718 l 1
 387 83 l 1
 505 83 l 1
 498 0 l 1
 152 0 l 1
EndSplineSet
EndChar

StartChar: onehalf
Encoding: 123 189 277
Width: 1100
VWidth: 0
Flags: MW
LayerCount: 2
UndoRedoHistory
Layer: 1
Undoes
EndUndoes
Redoes
EndRedoes
EndUndoRedoHistory
Fore
SplineSet
264 0 m 1
 763 698 l 1
 859 698 l 1
 360 0 l 1
 264 0 l 1
681 0 m 1
 687 58 l 1
 859 192 906 250 906 298 c 0
 906 326 884 341 850 341 c 0
 813 341 772 322 741 292 c 1
 710 349 l 1
 749 389 805 412 861 412 c 0
 932 412 987 376 987 306 c 0
 987 213 886 137 787 63 c 1
 964 63 l 1
 958 0 l 1
 681 0 l 1
148 291 m 1
 154 354 l 1
 221 354 l 1
 243 612 l 1
 222 602 192 591 168 583 c 1
 175 650 l 1
 215 663 256 685 278 697 c 1
 328 697 l 1
 298 354 l 1
 365 354 l 1
 360 291 l 1
 148 291 l 1
EndSplineSet
EndChar

StartChar: onequarter
Encoding: 122 188 278
Width: 1025
VWidth: 0
Flags: MW
LayerCount: 2
UndoRedoHistory
Layer: 1
Undoes
EndUndoes
Redoes
EndRedoes
EndUndoRedoHistory
Fore
SplineSet
148 291 m 1
 154 354 l 1
 221 354 l 1
 243 612 l 1
 222 602 192 591 168 583 c 1
 175 650 l 1
 215 663 256 685 278 697 c 1
 328 697 l 1
 298 354 l 1
 365 354 l 1
 360 291 l 1
 148 291 l 1
258 0 m 1
 757 698 l 1
 853 698 l 1
 354 0 l 1
 258 0 l 1
714 142 m 1
 819 142 l 1
 837 300 l 1
 714 142 l 1
807 0 m 1
 815 88 l 1
 637 88 l 1
 641 143 l 1
 840 393 l 1
 919 393 l 1
 898 142 l 1
 953 142 l 1
 949 88 l 1
 892 88 l 1
 884 0 l 1
 807 0 l 1
EndSplineSet
EndChar

StartChar: ordfeminine
Encoding: 105 170 279
Width: 404
VWidth: 0
Flags: MW
LayerCount: 2
UndoRedoHistory
Layer: 1
Undoes
EndUndoes
Redoes
EndRedoes
EndUndoRedoHistory
Fore
SplineSet
222 424 m 0
 277 424 327 477 327 541 c 1
 236 538 176 524 176 462 c 0
 176 438 191 424 222 424 c 0
291 581 m 0
 296 581 325 582 331 582 c 1
 331 584 333 591 333 593 c 0
 333 598 333 602 333 606 c 0
 333 646 312 661 271 661 c 0
 225 661 177 643 157 636 c 1
 137 691 l 1
 158 703 214 721 283 721 c 0
 354 721 413 695 413 613 c 0
 413 608 412 603 412 597 c 0
 406 524 397 453 397 394 c 0
 397 391 397 386 397 382 c 1
 323 382 l 1
 323 450 l 1
 298 392 258 370 203 370 c 0
 142 370 99 399 99 456 c 0
 99 530 170 580 291 581 c 0
EndSplineSet
EndChar

StartChar: ordmasculine
Encoding: 120 186 280
Width: 430
VWidth: 0
Flags: MW
LayerCount: 2
UndoRedoHistory
Layer: 1
Undoes
EndUndoes
Redoes
EndRedoes
EndUndoRedoHistory
Fore
SplineSet
449 564 m 0
 449 456 373 371 253 371 c 0
 141 371 84 437 84 527 c 0
 84 639 161 721 283 721 c 0
 392 721 449 653 449 564 c 0
277 654 m 0
 215 654 174 599 174 533 c 0
 174 480 200 438 258 438 c 0
 321 438 361 493 361 558 c 0
 361 612 333 654 277 654 c 0
EndSplineSet
EndChar

StartChar: oslash
Encoding: 182 248 281
Width: 613
VWidth: 0
Flags: MW
LayerCount: 2
UndoRedoHistory
Layer: 1
Undoes
EndUndoes
Redoes
EndRedoes
EndUndoRedoHistory
Fore
SplineSet
173 -108 m 1
 128 -86 l 1
 183 17 l 1
 110 55 68 129 68 221 c 0
 68 392 185 513 354 513 c 0
 386 513 415 509 441 501 c 1
 500 612 l 1
 545 590 l 1
 487 480 l 1
 554 441 589 370 589 281 c 0
 589 112 475 -11 306 -11 c 0
 279 -11 253 -6 230 0 c 1
 173 -108 l 1
345 433 m 0
 239 433 173 347 173 226 c 0
 173 170 190 125 225 97 c 1
 400 424 l 1
 384 430 365 433 345 433 c 0
442 397 m 1
 270 74 l 1
 283 70 298 69 314 69 c 0
 422 69 484 157 484 276 c 0
 484 326 470 369 442 397 c 1
EndSplineSet
EndChar

StartChar: p
Encoding: 80 112 283
Width: 613
VWidth: 0
Flags: MW
LayerCount: 2
UndoRedoHistory
Layer: 1
Undoes
EndUndoes
Redoes
EndRedoes
EndUndoRedoHistory
Fore
SplineSet
362 433 m 0
 263 433 200 346 200 222 c 0
 200 133 243 69 329 69 c 0
 430 69 487 160 487 280 c 0
 487 370 445 433 362 433 c 0
591 289 m 0
 591 120 488 -11 340 -11 c 0
 263 -11 200 35 188 78 c 1
 164 -201 l 1
 66 -201 l 1
 114 352 l 2
 117 392 120 450 121 501 c 1
 225 501 l 1
 219 419 l 1
 242 470 312 513 391 513 c 0
 517 513 591 419 591 289 c 0
EndSplineSet
EndChar

StartChar: paragraph
Encoding: 116 182 284
Width: 592
VWidth: 0
Flags: MW
LayerCount: 2
UndoRedoHistory
Layer: 1
Undoes
EndUndoes
Redoes
EndRedoes
EndUndoRedoHistory
Fore
SplineSet
102 538 m 0
 102 675 232 711 369 711 c 2
 582 711 l 1
 575 635 l 1
 521 635 l 1
 460 -60 l 1
 390 -60 l 1
 451 635 l 1
 361 635 l 1
 301 -60 l 1
 226 -60 l 1
 264 381 l 1
 184 386 102 447 102 538 c 0
EndSplineSet
EndChar

StartChar: parenleft
Encoding: 8 40 285
Width: 310
VWidth: 0
Flags: MW
LayerCount: 2
UndoRedoHistory
Layer: 1
Undoes
EndUndoes
Redoes
EndRedoes
EndUndoRedoHistory
Fore
SplineSet
195 -88 m 1
 135 17 91 143 91 272 c 0
 91 456 164 595 265 735 c 1
 359 735 l 1
 256 592 190 446 190 272 c 0
 190 152 228 22 287 -88 c 1
 195 -88 l 1
EndSplineSet
EndChar

StartChar: parenright
Encoding: 9 41 286
Width: 309
VWidth: 0
Flags: MW
LayerCount: 2
UndoRedoHistory
Layer: 1
Undoes
EndUndoes
Redoes
EndRedoes
EndUndoRedoHistory
Fore
SplineSet
22 -88 m 1
 115 43 188 194 188 375 c 0
 188 489 155 621 92 735 c 1
 185 735 l 1
 245 629 287 502 287 374 c 0
 287 188 214 48 118 -88 c 1
 22 -88 l 1
EndSplineSet
EndChar

StartChar: partialdiff
Encoding: 418 8706 287
Width: 569
VWidth: 0
Flags: MW
LayerCount: 2
UndoRedoHistory
Layer: 1
Undoes
EndUndoes
Redoes
EndRedoes
EndUndoRedoHistory
Fore
SplineSet
334 410 m 0
 241 410 157 306 157 185 c 0
 157 115 191 70 250 70 c 0
 338 70 422 169 447 339 c 1
 433 376 390 410 334 410 c 0
56 179 m 0
 56 355 189 489 332 489 c 0
 379 489 421 475 462 433 c 1
 463 440 464 451 464 459 c 0
 465 468 465 477 465 485 c 0
 465 595 417 660 335 660 c 0
 293 660 237 635 190 605 c 1
 192 692 l 1
 236 721 295 740 352 740 c 0
 486 740 567 656 567 473 c 0
 567 453 566 432 564 409 c 0
 545 201 435 -12 242 -12 c 0
 117 -12 56 69 56 179 c 0
EndSplineSet
EndChar

StartChar: percent
Encoding: 5 37 288
Width: 903
VWidth: 0
Flags: MW
LayerCount: 2
UndoRedoHistory
Layer: 1
Undoes
EndUndoes
Redoes
EndRedoes
EndUndoRedoHistory
Fore
SplineSet
709 359 m 0
 811 359 864 289 864 196 c 0
 864 77 789 -12 675 -12 c 0
 574 -12 520 57 520 150 c 0
 520 267 595 359 709 359 c 0
778 196 m 0
 778 250 758 294 703 294 c 0
 634 294 605 224 605 152 c 0
 605 96 628 53 682 53 c 0
 749 53 778 121 778 196 c 0
196 0 m 1
 683 711 l 1
 767 711 l 1
 280 0 l 1
 196 0 l 1
293 721 m 0
 395 721 448 650 448 557 c 0
 448 438 374 349 260 349 c 0
 159 349 104 418 104 511 c 0
 104 629 178 721 293 721 c 0
363 556 m 0
 363 610 342 655 287 655 c 0
 218 655 190 585 190 513 c 0
 190 457 212 415 266 415 c 0
 332 415 363 481 363 556 c 0
EndSplineSet
EndChar

StartChar: period
Encoding: 14 46 289
Width: 264
VWidth: 0
Flags: MW
LayerCount: 2
UndoRedoHistory
Layer: 1
Undoes
EndUndoes
Redoes
EndRedoes
EndUndoRedoHistory
Fore
SplineSet
71 0 m 1
 81 117 l 1
 203 117 l 1
 193 0 l 1
 71 0 l 1
EndSplineSet
EndChar

StartChar: periodcentered
Encoding: 117 183 290
Width: 216
VWidth: 0
Flags: MW
LayerCount: 2
UndoRedoHistory
Layer: 1
Undoes
EndUndoes
Redoes
EndRedoes
EndUndoRedoHistory
Fore
SplineSet
77 260 m 1
 87 376 l 1
 210 376 l 1
 200 260 l 1
 77 260 l 1
EndSplineSet
EndChar

StartChar: perthousand
Encoding: 411 8240 291
Width: 1209
VWidth: 0
Flags: MW
LayerCount: 2
UndoRedoHistory
Layer: 1
Undoes
EndUndoes
Redoes
EndRedoes
EndUndoRedoHistory
Fore
SplineSet
1184 188 m 0
 1184 72 1107 -12 995 -12 c 0
 895 -12 838 52 838 146 c 0
 838 261 914 347 1027 347 c 0
 1128 347 1184 281 1184 188 c 0
1021 282 m 0
 956 282 924 217 924 148 c 0
 924 93 949 53 1001 53 c 0
 1064 53 1098 113 1098 184 c 0
 1098 238 1075 282 1021 282 c 0
789 188 m 0
 789 72 713 -12 601 -12 c 0
 501 -12 444 52 444 146 c 0
 444 261 520 347 633 347 c 0
 733 347 789 281 789 188 c 0
627 282 m 0
 562 282 530 217 530 148 c 0
 530 93 555 53 607 53 c 0
 670 53 704 113 704 184 c 0
 704 238 681 282 627 282 c 0
133 -4 m 1
 645 695 l 1
 730 695 l 1
 219 -4 l 1
 133 -4 l 1
418 539 m 0
 418 423 341 339 229 339 c 0
 129 339 72 404 72 498 c 0
 72 613 148 698 261 698 c 0
 362 698 418 632 418 539 c 0
255 633 m 0
 190 633 159 571 159 501 c 0
 159 447 183 404 236 404 c 0
 298 404 332 464 332 535 c 0
 332 589 309 633 255 633 c 0
EndSplineSet
EndChar

StartChar: pi
Encoding: 375 960 292
Width: 628
VWidth: 0
Flags: MW
LayerCount: 2
UndoRedoHistory
Layer: 1
Undoes
EndUndoes
Redoes
EndRedoes
EndUndoRedoHistory
Fore
SplineSet
565 78 m 1
 563 63 560 49 560 32 c 0
 560 22 561 13 563 3 c 1
 537 -1 515 -4 496 -4 c 0
 430 -4 403 25 403 99 c 0
 403 110 404 123 405 136 c 2
 432 443 l 1
 251 443 l 1
 251 443 198 83 145 0 c 1
 62 0 l 1
 118 86 151 301 168 443 c 1
 109 442 69 432 31 413 c 1
 28 477 l 1
 63 502 115 508 203 508 c 2
 615 508 l 1
 609 443 l 1
 510 443 l 1
 483 141 l 2
 483 135 482 128 482 121 c 0
 482 96 488 72 525 72 c 0
 535 72 549 74 565 78 c 1
EndSplineSet
EndChar

StartChar: plus
Encoding: 11 43 293
Width: 597
VWidth: 0
Flags: MW
LayerCount: 2
UndoRedoHistory
Layer: 1
Undoes
EndUndoes
Redoes
EndRedoes
EndUndoRedoHistory
Fore
SplineSet
259 49 m 1
 277 248 l 1
 86 248 l 1
 93 332 l 1
 285 332 l 1
 303 531 l 1
 395 531 l 1
 377 332 l 1
 569 332 l 1
 562 248 l 1
 370 248 l 1
 352 49 l 1
 259 49 l 1
EndSplineSet
EndChar

StartChar: plusminus
Encoding: 112 177 294
Width: 606
VWidth: 0
Flags: MW
LayerCount: 2
UndoRedoHistory
Layer: 1
Undoes
EndUndoes
Redoes
EndRedoes
EndUndoRedoHistory
Fore
SplineSet
89 0 m 1
 95 67 l 1
 533 67 l 1
 526 0 l 1
 89 0 l 1
270 116 m 1
 284 280 l 1
 111 280 l 1
 118 362 l 1
 290 362 l 1
 304 528 l 1
 397 528 l 1
 382 362 l 1
 556 362 l 1
 548 280 l 1
 378 280 l 1
 364 116 l 1
 270 116 l 1
EndSplineSet
EndChar

StartChar: product
Encoding: 420 8719 295
Width: 765
VWidth: 0
Flags: MW
LayerCount: 2
UndoRedoHistory
Layer: 1
Undoes
EndUndoes
Redoes
EndRedoes
EndUndoRedoHistory
Fore
SplineSet
106 -132 m 1
 173 627 l 1
 87 627 l 1
 96 711 l 1
 789 711 l 1
 781 627 l 1
 706 627 l 1
 639 -132 l 1
 528 -132 l 1
 595 627 l 1
 281 627 l 1
 215 -132 l 1
 106 -132 l 1
EndSplineSet
EndChar

StartChar: q
Encoding: 81 113 296
Width: 607
VWidth: 0
Flags: MW
LayerCount: 2
UndoRedoHistory
Layer: 1
Undoes
EndUndoes
Redoes
EndRedoes
EndUndoRedoHistory
Fore
SplineSet
333 433 m 0
 233 433 173 344 173 223 c 0
 173 133 214 69 299 69 c 0
 399 69 459 162 459 284 c 0
 459 372 416 433 333 433 c 0
68 221 m 0
 68 390 173 513 329 513 c 0
 411 513 454 464 471 435 c 1
 478 501 l 1
 579 501 l 1
 576 476 568 427 564 378 c 2
 513 -201 l 1
 415 -201 l 1
 439 77 l 1
 425 41 367 -11 282 -11 c 0
 144 -11 68 89 68 221 c 0
EndSplineSet
EndChar

StartChar: question
Encoding: 31 63 297
Width: 512
VWidth: 0
Flags: MW
LayerCount: 2
UndoRedoHistory
Layer: 1
Undoes
EndUndoes
Redoes
EndRedoes
EndUndoRedoHistory
Fore
SplineSet
173 0 m 1
 184 114 l 1
 277 114 l 1
 267 0 l 1
 173 0 l 1
188 187 m 1
 188 187 192 250 193 262 c 0
 204 389 400 438 400 556 c 0
 400 613 351 637 289 637 c 0
 244 637 193 622 146 600 c 1
 153 689 l 1
 207 713 263 721 310 721 c 0
 420 721 502 673 502 569 c 0
 502 406 296 384 283 233 c 0
 282 228 279 192 279 187 c 1
 188 187 l 1
EndSplineSet
EndChar

StartChar: quotedbl
Encoding: 2 34 299
Width: 373
VWidth: 0
Flags: MW
LayerCount: 2
UndoRedoHistory
Layer: 1
Undoes
EndUndoes
Redoes
EndRedoes
EndUndoRedoHistory
Fore
SplineSet
269 445 m 1
 275 711 l 1
 377 711 l 1
 322 445 l 1
 269 445 l 1
112 445 m 1
 118 711 l 1
 220 711 l 1
 166 445 l 1
 112 445 l 1
EndSplineSet
EndChar

StartChar: quotedblbase
Encoding: 406 8222 300
Width: 500
VWidth: 0
Flags: MW
LayerCount: 2
UndoRedoHistory
Layer: 1
Undoes
EndUndoes
Redoes
EndRedoes
EndUndoRedoHistory
Fore
SplineSet
233 -112 m 1
 306 112 l 1
 416 112 l 1
 317 -112 l 1
 233 -112 l 1
64 -112 m 1
 136 112 l 1
 246 112 l 1
 150 -112 l 1
 64 -112 l 1
EndSplineSet
EndChar

StartChar: quotedblleft
Encoding: 404 8220 301
Width: 500
VWidth: 0
Flags: MW
LayerCount: 2
UndoRedoHistory
Layer: 1
Undoes
EndUndoes
Redoes
EndRedoes
EndUndoRedoHistory
Fore
SplineSet
292 483 m 1
 385 708 l 1
 470 708 l 1
 397 483 l 1
 292 483 l 1
105 483 m 1
 203 708 l 1
 289 708 l 1
 215 483 l 1
 105 483 l 1
EndSplineSet
EndChar

StartChar: quotedblright
Encoding: 405 8221 302
Width: 500
VWidth: 0
Flags: MW
LayerCount: 2
UndoRedoHistory
Layer: 1
Undoes
EndUndoes
Redoes
EndRedoes
EndUndoRedoHistory
Fore
SplineSet
285 483 m 1
 357 708 l 1
 467 708 l 1
 368 483 l 1
 285 483 l 1
115 483 m 1
 187 708 l 1
 297 708 l 1
 199 483 l 1
 115 483 l 1
EndSplineSet
EndChar

StartChar: quoteleft
Encoding: 401 8216 303
Width: 290
VWidth: 0
Flags: MW
LayerCount: 2
UndoRedoHistory
Layer: 1
Undoes
EndUndoes
Redoes
EndRedoes
EndUndoRedoHistory
Fore
SplineSet
118 486 m 1
 198 711 l 1
 300 711 l 1
 210 486 l 1
 118 486 l 1
EndSplineSet
EndChar

StartChar: quoteright
Encoding: 402 8217 304
Width: 248
VWidth: 0
Flags: MW
LayerCount: 2
UndoRedoHistory
Layer: 1
Undoes
EndUndoes
Redoes
EndRedoes
EndUndoRedoHistory
Fore
SplineSet
90 487 m 1
 163 711 l 1
 272 711 l 1
 174 487 l 1
 90 487 l 1
EndSplineSet
EndChar

StartChar: quotesinglbase
Encoding: 403 8218 305
Width: 270
VWidth: 0
Flags: MW
LayerCount: 2
UndoRedoHistory
Layer: 1
Undoes
EndUndoes
Redoes
EndRedoes
EndUndoRedoHistory
Fore
SplineSet
42 -112 m 1
 116 112 l 1
 226 112 l 1
 127 -112 l 1
 42 -112 l 1
EndSplineSet
EndChar

StartChar: quotesingle
Encoding: 7 39 306
Width: 270
VWidth: 0
Flags: MW
LayerCount: 2
UndoRedoHistory
Layer: 1
Undoes
EndUndoes
Redoes
EndRedoes
EndUndoRedoHistory
Fore
SplineSet
135 476 m 1
 137 711 l 1
 248 711 l 1
 214 476 l 1
 135 476 l 1
EndSplineSet
EndChar

StartChar: r
Encoding: 82 114 307
Width: 394
VWidth: 0
Flags: MW
LayerCount: 2
UndoRedoHistory
Layer: 1
Undoes
EndUndoes
Redoes
EndRedoes
EndUndoRedoHistory
Fore
SplineSet
82 0 m 1
 115 377 l 2
 118 408 119 501 119 501 c 1
 223 501 l 1
 217 420 l 1
 249 482 300 513 355 513 c 0
 372 513 390 511 406 507 c 1
 399 417 l 1
 388 421 366 428 342 428 c 0
 271 428 214 375 206 280 c 2
 182 0 l 1
 82 0 l 1
EndSplineSet
EndChar

StartChar: radical
Encoding: 425 8730 309
Width: 641
VWidth: 0
Flags: MW
LayerCount: 2
UndoRedoHistory
Layer: 1
Undoes
EndUndoes
Redoes
EndRedoes
EndUndoRedoHistory
Fore
SplineSet
267 -72 m 1
 146 324 l 2
 145 324 63 310 63 310 c 1
 54 380 l 1
 217 407 l 1
 312 71 l 1
 561 770 l 1
 647 770 l 1
 349 -72 l 1
 267 -72 l 1
EndSplineSet
EndChar

StartChar: registered
Encoding: 109 174 312
Width: 893
VWidth: 0
Flags: MW
LayerCount: 2
UndoRedoHistory
Layer: 1
Undoes
EndUndoes
Redoes
EndRedoes
EndUndoRedoHistory
Fore
SplineSet
504 725 m 0
 712 725 860 575 860 387 c 0
 860 162 666 -13 442 -13 c 0
 233 -13 85 136 85 324 c 0
 85 550 281 725 504 725 c 0
500 667 m 0
 309 667 152 522 152 327 c 0
 152 166 271 42 446 42 c 0
 636 42 794 190 794 384 c 0
 794 546 674 667 500 667 c 0
668 470 m 0
 668 403 628 347 537 333 c 1
 571 305 598 254 657 137 c 1
 550 137 l 1
 520 214 471 307 449 321 c 1
 395 321 l 1
 378 137 l 1
 289 137 l 1
 329 588 l 1
 469 588 l 2
 604 588 668 546 668 470 c 0
455 392 m 2
 533 392 577 399 577 462 c 0
 577 510 545 516 462 516 c 2
 412 516 l 1
 400 392 l 1
 455 392 l 2
EndSplineSet
EndChar

StartChar: ring
Encoding: 367 730 313
Width: 295
VWidth: 0
Flags: MW
LayerCount: 2
UndoRedoHistory
Layer: 1
Undoes
EndUndoes
Redoes
EndRedoes
EndUndoRedoHistory
Fore
SplineSet
319 652 m 0
 319 595 271 547 203 547 c 0
 138 547 103 589 103 637 c 0
 103 695 152 744 219 744 c 0
 283 744 319 700 319 652 c 0
207 595 m 0
 238 595 260 620 260 649 c 0
 260 674 244 697 215 697 c 1
 184 697 160 671 160 642 c 0
 160 617 176 595 207 595 c 0
EndSplineSet
EndChar

StartChar: s
Encoding: 83 115 314
Width: 485
VWidth: 0
Flags: MW
LayerCount: 2
UndoRedoHistory
Layer: 1
Undoes
EndUndoes
Redoes
EndRedoes
EndUndoRedoHistory
Fore
SplineSet
457 154 m 0
 457 30 343 -11 253 -11 c 0
 143 -11 76 35 62 47 c 1
 92 121 l 1
 110 108 178 67 250 67 c 0
 303 67 357 86 357 143 c 0
 357 184 316 196 247 218 c 0
 166 243 90 272 90 357 c 0
 90 470 189 513 285 513 c 0
 378 513 437 483 458 470 c 1
 425 400 l 1
 413 406 354 434 293 434 c 0
 235 434 190 415 190 370 c 0
 190 330 234 317 305 293 c 0
 385 267 457 243 457 154 c 0
EndSplineSet
EndChar

StartChar: section
Encoding: 102 167 320
Width: 526
VWidth: 0
Flags: MW
LayerCount: 2
UndoRedoHistory
Layer: 1
Undoes
EndUndoes
Redoes
EndRedoes
EndUndoRedoHistory
Fore
SplineSet
452 146 m 0
 452 36 349 -17 242 -17 c 0
 195 -17 144 -8 100 11 c 1
 107 90 l 1
 150 70 202 57 245 57 c 0
 303 57 352 88 352 133 c 0
 352 171 302 187 215 225 c 1
 146 259 117 292 117 344 c 0
 117 405 159 446 209 474 c 1
 174 500 153 529 153 574 c 0
 153 680 247 726 351 726 c 0
 394 726 433 719 474 705 c 1
 466 627 l 1
 438 637 389 649 350 649 c 0
 301 649 249 633 249 589 c 0
 249 556 287 534 356 501 c 1
 421 468 482 434 482 371 c 0
 482 314 439 274 392 243 c 1
 429 222 452 192 452 146 c 0
267 439 m 1
 240 422 214 398 214 363 c 0
 214 324 270 305 333 277 c 1
 354 293 381 320 381 354 c 0
 381 399 312 415 267 439 c 1
EndSplineSet
EndChar

StartChar: semicolon
Encoding: 27 59 321
Width: 264
VWidth: 0
Flags: MW
LayerCount: 2
UndoRedoHistory
Layer: 1
Undoes
EndUndoes
Redoes
EndRedoes
EndUndoRedoHistory
Fore
SplineSet
112 421 m 1
 122 537 l 1
 236 537 l 1
 226 421 l 1
 112 421 l 1
23 -121 m 1
 96 115 l 1
 209 115 l 1
 105 -121 l 1
 23 -121 l 1
EndSplineSet
EndChar

StartChar: seven
Encoding: 23 55 322
Width: 605
VWidth: 0
Flags: MW
LayerCount: 2
UndoRedoHistory
Layer: 1
Undoes
EndUndoes
Redoes
EndRedoes
EndUndoRedoHistory
Fore
SplineSet
159 0 m 1
 471 626 l 1
 127 626 l 1
 135 711 l 1
 595 711 l 1
 588 633 l 1
 271 0 l 1
 159 0 l 1
EndSplineSet
EndChar

StartChar: six
Encoding: 22 54 323
Width: 604
VWidth: 0
Flags: MW
LayerCount: 2
UndoRedoHistory
Layer: 1
Undoes
EndUndoes
Redoes
EndRedoes
EndUndoRedoHistory
Fore
SplineSet
362 378 m 0
 271 378 209 313 209 218 c 0
 209 130 258 77 334 77 c 0
 421 77 479 151 479 249 c 0
 479 324 442 378 362 378 c 0
586 257 m 0
 586 102 480 -11 327 -11 c 0
 172 -11 100 103 100 277 c 0
 100 518 214 724 417 724 c 0
 488 724 545 702 583 666 c 1
 542 590 l 1
 507 620 462 636 410 636 c 0
 296 636 228 514 214 377 c 1
 254 429 309 462 384 462 c 0
 505 462 586 383 586 257 c 0
EndSplineSet
EndChar

StartChar: slash
Encoding: 15 47 324
Width: 471
VWidth: 0
Flags: MW
LayerCount: 2
UndoRedoHistory
Layer: 1
Undoes
EndUndoes
Redoes
EndRedoes
EndUndoRedoHistory
Fore
SplineSet
61 0 m 1
 390 711 l 1
 482 711 l 1
 153 0 l 1
 61 0 l 1
EndSplineSet
EndChar

StartChar: sterling
Encoding: 98 163 326
Width: 606
VWidth: 0
Flags: MW
LayerCount: 2
UndoRedoHistory
Layer: 1
Undoes
EndUndoes
Redoes
EndRedoes
EndUndoRedoHistory
Fore
SplineSet
96 0 m 1
 102 79 l 1
 146 110 191 155 201 271 c 2
 207 340 l 1
 112 340 l 1
 117 403 l 1
 211 403 l 1
 215 445 l 1
 228 596 278 717 460 717 c 0
 526 717 574 701 606 679 c 1
 573 604 l 1
 543 622 507 634 458 634 c 0
 366 634 328 578 319 468 c 0
 318 459 314 414 314 403 c 1
 471 403 l 1
 465 340 l 1
 312 340 l 1
 312 337 306 275 305 270 c 0
 297 200 252 114 221 83 c 1
 526 83 l 1
 520 0 l 1
 96 0 l 1
EndSplineSet
EndChar

StartChar: summation
Encoding: 421 8721 327
Width: 617
VWidth: 0
Flags: MW
LayerCount: 2
UndoRedoHistory
Layer: 1
Undoes
EndUndoes
Redoes
EndRedoes
EndUndoRedoHistory
Fore
SplineSet
28 -132 m 1
 33 -77 l 1
 366 293 l 1
 108 657 l 1
 113 711 l 1
 653 711 l 1
 645 627 l 1
 252 627 l 1
 487 296 l 1
 183 -44 l 1
 607 -44 l 1
 600 -132 l 1
 28 -132 l 1
EndSplineSet
EndChar

StartChar: t
Encoding: 84 116 328
Width: 378
VWidth: 0
Flags: MW
AnchorPoint: "bot" 235 0 basechar 0
LayerCount: 2
UndoRedoHistory
Layer: 1
Undoes
EndUndoes
Redoes
EndRedoes
EndUndoRedoHistory
Fore
SplineSet
348 0 m 1
 319 0 l 2
 188 0 117 19 117 140 c 0
 117 150 118 161 119 173 c 2
 142 435 l 1
 61 435 l 1
 66 501 l 1
 150 501 l 1
 162 626 l 1
 261 655 l 1
 247 501 l 1
 384 501 l 1
 378 435 l 1
 241 435 l 1
 218 164 l 2
 218 157 217 151 217 145 c 0
 217 85 251 77 355 77 c 1
 348 0 l 1
EndSplineSet
EndChar

StartChar: tbar
Encoding: 293 359 329
Width: 379
VWidth: 0
Flags: MW
LayerCount: 2
UndoRedoHistory
Layer: 1
Undoes
EndUndoes
Redoes
EndRedoes
EndUndoRedoHistory
Fore
SplineSet
45 272 m 1
 52 348 l 1
 355 348 l 1
 349 272 l 1
 45 272 l 1
EndSplineSet
Refer: 328 116 N 1 0 0 1 0 0 2
EndChar

StartChar: thorn
Encoding: 188 254 332
Width: 602
VWidth: 0
Flags: MW
LayerCount: 2
UndoRedoHistory
Layer: 1
Undoes
EndUndoes
Redoes
EndRedoes
EndUndoRedoHistory
Fore
SplineSet
315 69 m 0
 421 69 473 171 473 284 c 0
 473 364 442 432 351 432 c 0
 239 432 190 330 190 217 c 0
 190 131 232 69 315 69 c 0
578 287 m 0
 578 130 476 -11 332 -11 c 0
 260 -11 204 15 176 64 c 1
 152 -201 l 1
 56 -201 l 1
 136 711 l 1
 234 711 l 1
 208 434 l 1
 242 481 299 513 370 513 c 0
 507 513 578 412 578 287 c 0
EndSplineSet
EndChar

StartChar: three
Encoding: 19 51 333
Width: 604
VWidth: 0
Flags: MW
LayerCount: 2
UndoRedoHistory
Layer: 1
Undoes
EndUndoes
Redoes
EndRedoes
EndUndoRedoHistory
Fore
SplineSet
578 554 m 0
 578 462 520 396 423 376 c 1
 512 358 566 298 566 216 c 0
 566 72 437 -11 299 -11 c 0
 189 -11 104 27 76 98 c 1
 137 167 l 1
 167 110 230 77 306 77 c 0
 392 77 461 128 461 216 c 0
 461 296 396 328 291 328 c 0
 280 328 260 327 243 326 c 1
 249 414 l 1
 263 414 285 414 291 414 c 0
 397 414 469 446 469 549 c 0
 469 608 421 636 354 636 c 0
 277 636 218 607 175 551 c 1
 121 617 l 1
 175 691 263 724 368 724 c 0
 478 724 578 665 578 554 c 0
EndSplineSet
EndChar

StartChar: threequarters
Encoding: 124 190 334
Width: 1095
VWidth: 0
Flags: MW
LayerCount: 2
UndoRedoHistory
Layer: 1
Undoes
EndUndoes
Redoes
EndRedoes
EndUndoRedoHistory
Fore
SplineSet
299 0 m 1
 797 698 l 1
 893 698 l 1
 395 0 l 1
 299 0 l 1
436 596 m 0
 436 551 408 520 367 501 c 1
 405 481 430 447 430 405 c 0
 430 321 352 279 273 279 c 0
 225 279 177 296 139 326 c 1
 170 372 l 1
 198 351 237 335 272 335 c 0
 319 335 359 355 359 408 c 0
 359 447 322 470 262 470 c 2
 226 470 l 1
 232 529 l 1
 266 529 l 2
 319 529 359 546 359 587 c 0
 359 626 331 640 297 640 c 0
 258 640 210 622 186 603 c 1
 165 651 l 1
 205 679 258 700 310 700 c 0
 376 700 436 663 436 596 c 0
717 142 m 1
 822 142 l 1
 840 300 l 1
 717 142 l 1
810 0 m 1
 818 88 l 1
 640 88 l 1
 644 143 l 1
 843 393 l 1
 922 393 l 1
 901 142 l 1
 956 142 l 1
 952 88 l 1
 895 88 l 1
 887 0 l 1
 810 0 l 1
EndSplineSet
EndChar

StartChar: tilde
Encoding: 369 732 335
Width: 323
VWidth: 0
Flags: MW
LayerCount: 2
UndoRedoHistory
Layer: 1
Undoes
EndUndoes
Redoes
EndRedoes
EndUndoRedoHistory
Fore
SplineSet
55 572 m 1
 66 641 104 694 163 694 c 0
 214 694 258 651 291 651 c 0
 312 651 323 669 329 699 c 1
 394 699 l 1
 382 633 348 575 287 575 c 0
 244 575 192 618 158 618 c 0
 138 618 124 604 118 572 c 1
 55 572 l 1
EndSplineSet
EndChar

StartChar: trademark
Encoding: 417 8482 336
Width: 912
VWidth: 0
Flags: MW
LayerCount: 2
UndoRedoHistory
Layer: 1
Undoes
EndUndoes
Redoes
EndRedoes
EndUndoRedoHistory
Fore
SplineSet
191 324 m 1
 219 636 l 1
 98 636 l 1
 103 701 l 1
 425 701 l 1
 418 636 l 1
 295 636 l 1
 268 324 l 1
 191 324 l 1
425 324 m 1
 458 701 l 1
 565 701 l 1
 647 456 l 1
 778 701 l 1
 880 701 l 1
 847 324 l 1
 771 324 l 1
 793 568 l 1
 658 324 l 1
 604 324 l 1
 521 565 l 1
 500 324 l 1
 425 324 l 1
EndSplineSet
EndChar

StartChar: two
Encoding: 18 50 337
Width: 604
VWidth: 0
Flags: MW
LayerCount: 2
UndoRedoHistory
Layer: 1
Undoes
EndUndoes
Redoes
EndRedoes
EndUndoRedoHistory
Fore
SplineSet
82 0 m 1
 89 80 l 1
 333 318 l 2
 415 397 467 456 467 539 c 0
 467 605 422 636 355 636 c 0
 284 636 218 605 176 541 c 1
 121 600 l 1
 168 680 259 724 364 724 c 0
 487 724 570 664 570 547 c 0
 570 431 494 345 396 251 c 2
 223 85 l 1
 533 85 l 1
 525 0 l 1
 82 0 l 1
EndSplineSet
EndChar

StartChar: u
Encoding: 85 117 338
Width: 591
VWidth: 0
Flags: MW
AnchorPoint: "ogonek" 468 0 basechar 0
LayerCount: 2
UndoRedoHistory
Layer: 1
Undoes
EndUndoes
Redoes
EndRedoes
EndUndoRedoHistory
Fore
SplineSet
259 -11 m 0
 143 -11 88 67 88 166 c 0
 88 174 89 181 89 189 c 2
 116 501 l 1
 215 501 l 1
 188 189 l 2
 188 183 188 177 188 172 c 0
 188 102 229 69 294 69 c 0
 376 69 424 123 431 206 c 2
 458 501 l 1
 557 501 l 1
 524 127 l 2
 521 92 518 19 518 0 c 1
 416 0 l 1
 421 89 l 1
 407 56 358 -11 259 -11 c 0
EndSplineSet
EndChar

StartChar: underscore
Encoding: 63 95 346
Width: 469
VWidth: 0
Flags: MW
LayerCount: 2
UndoRedoHistory
Layer: 1
Undoes
EndUndoes
Redoes
EndRedoes
EndUndoRedoHistory
Fore
SplineSet
-7 -105 m 1
 -0 -27 l 1
 477 -27 l 1
 470 -105 l 1
 -7 -105 l 1
EndSplineSet
EndChar

StartChar: uni007F
Encoding: 440 127 348
Width: 742
VWidth: 0
Flags: MW
LayerCount: 2
UndoRedoHistory
Layer: 1
Undoes
EndUndoes
Redoes
EndRedoes
EndUndoRedoHistory
Fore
SplineSet
233 649 m 1
 182 61 l 1
 573 61 l 1
 625 649 l 1
 233 649 l 1
92 0 m 1
 155 711 l 1
 714 711 l 1
 651 0 l 1
 92 0 l 1
EndSplineSet
EndChar

StartChar: uni00AD
Encoding: 108 173 350
Width: 355
VWidth: 0
Flags: MW
LayerCount: 2
UndoRedoHistory
Layer: 1
Undoes
EndUndoes
Redoes
EndRedoes
EndUndoRedoHistory
Fore
SplineSet
84 594 m 1
 91 669 l 1
 382 669 l 1
 376 594 l 1
 84 594 l 1
EndSplineSet
EndChar

StartChar: uni00B2
Encoding: 113 178 351
Width: 461
VWidth: 0
Flags: MW
LayerCount: 2
UndoRedoHistory
Layer: 1
Undoes
EndUndoes
Redoes
EndRedoes
EndUndoRedoHistory
Fore
SplineSet
125 312 m 1
 130 375 l 1
 277 494 353 558 353 610 c 0
 353 639 329 656 293 656 c 0
 255 656 217 635 189 602 c 1
 156 652 l 1
 191 696 245 721 303 721 c 0
 374 721 427 685 427 618 c 0
 427 525 338 457 236 379 c 1
 404 379 l 1
 398 312 l 1
 125 312 l 1
EndSplineSet
EndChar

StartChar: uni00B3
Encoding: 114 179 352
Width: 460
VWidth: 0
Flags: MW
LayerCount: 2
UndoRedoHistory
Layer: 1
Undoes
EndUndoes
Redoes
EndRedoes
EndUndoRedoHistory
Fore
SplineSet
416 436 m 0
 416 349 342 303 262 303 c 0
 214 303 164 318 130 349 c 1
 163 402 l 1
 195 375 234 364 263 364 c 0
 308 364 343 389 343 435 c 0
 343 475 307 489 249 489 c 2
 216 489 l 1
 222 549 l 1
 252 549 l 2
 305 549 346 564 346 612 c 0
 346 646 325 662 291 662 c 0
 256 662 217 647 183 624 c 1
 157 673 l 1
 194 701 249 721 299 721 c 0
 364 721 421 687 421 622 c 0
 421 579 401 537 343 521 c 1
 392 506 416 476 416 436 c 0
EndSplineSet
EndChar

StartChar: uni00B9
Encoding: 119 185 353
Width: 445
VWidth: 0
Flags: MW
LayerCount: 2
UndoRedoHistory
Layer: 1
Undoes
EndUndoes
Redoes
EndRedoes
EndUndoRedoHistory
Fore
SplineSet
158 315 m 1
 164 374 l 1
 234 374 l 1
 257 636 l 1
 236 626 199 614 174 605 c 1
 182 674 l 1
 221 686 254 698 276 711 c 1
 336 721 l 1
 305 373 l 1
 375 373 l 1
 370 315 l 1
 158 315 l 1
EndSplineSet
EndChar

StartChar: uni02C9
Encoding: 364 713 394
Width: 355
VWidth: 0
Flags: MW
LayerCount: 2
UndoRedoHistory
Layer: 1
Undoes
EndUndoes
Redoes
EndRedoes
EndUndoRedoHistory
Fore
SplineSet
89 580 m 1
 95 652 l 1
 382 652 l 1
 376 580 l 1
 89 580 l 1
EndSplineSet
EndChar

StartChar: uni0311
Encoding: 373 785 395
Width: 307
VWidth: 0
Flags: MW
LayerCount: 2
UndoRedoHistory
Layer: 1
Undoes
EndUndoes
Redoes
EndRedoes
EndUndoRedoHistory
Fore
SplineSet
74 595 m 1
 87 675 158 716 225 716 c 0
 290 716 351 677 350 595 c 1
 295 595 l 1
 289 638 255 659 220 659 c 0
 183 659 146 637 136 595 c 1
 74 595 l 1
EndSplineSet
EndChar

StartChar: afii00208
Encoding: 400 8213 411
Width: 1083
VWidth: 0
Flags: MW
LayerCount: 2
UndoRedoHistory
Layer: 1
Undoes
EndUndoes
Redoes
EndRedoes
EndUndoRedoHistory
Fore
SplineSet
42 230 m 1
 49 309 l 1
 1042 309 l 1
 1035 230 l 1
 42 230 l 1
EndSplineSet
EndChar

StartChar: uni2074
Encoding: 415 8308 412
Width: 437
VWidth: 0
Flags: MW
LayerCount: 2
UndoRedoHistory
Layer: 1
Undoes
EndUndoes
Redoes
EndRedoes
EndUndoRedoHistory
Fore
SplineSet
174 465 m 1
 283 465 l 1
 296 622 l 1
 174 465 l 1
271 320 m 1
 279 409 l 1
 99 409 l 1
 103 460 l 1
 302 711 l 1
 376 711 l 1
 354 465 l 1
 409 465 l 1
 408 409 l 1
 350 409 l 1
 342 320 l 1
 271 320 l 1
EndSplineSet
EndChar

StartChar: Delta
Encoding: 419 8710 413
Width: 641
VWidth: 0
Flags: MW
LayerCount: 2
UndoRedoHistory
Layer: 1
Undoes
EndUndoes
Redoes
EndRedoes
EndUndoRedoHistory
Fore
SplineSet
147 53 m 1
 549 53 l 1
 498 235 446 417 396 600 c 1
 376 552 l 1
 147 53 l 1
62 0 m 1
 66 39 l 1
 378 698 l 1
 431 698 l 1
 626 39 l 1
 623 0 l 1
 62 0 l 1
EndSplineSet
EndChar

StartChar: uniFB00
Encoding: 433 64256 416
Width: 698
VWidth: 0
Flags: MW
LayerCount: 2
UndoRedoHistory
Layer: 1
Undoes
EndUndoes
Redoes
EndRedoes
EndUndoRedoHistory
Fore
SplineSet
450 0 m 1
 488 440 l 1
 247 440 l 1
 208 0 l 1
 116 0 l 1
 154 440 l 1
 64 440 l 1
 70 501 l 1
 160 501 l 1
 164 551 l 1
 176 680 213 727 380 727 c 2
 396 727 l 1
 389 655 l 1
 282 655 265 642 257 553 c 2
 252 501 l 1
 494 501 l 1
 498 551 l 1
 510 680 547 727 714 727 c 2
 730 727 l 1
 723 655 l 1
 616 655 599 642 591 553 c 2
 586 501 l 1
 714 501 l 1
 709 440 l 1
 581 440 l 1
 542 0 l 1
 450 0 l 1
EndSplineSet
EndChar

StartChar: uniFB01
Encoding: 434 64257 417
Width: 592
VWidth: 0
Flags: MW
LayerCount: 2
UndoRedoHistory
Layer: 1
Undoes
EndUndoes
Redoes
EndRedoes
EndUndoRedoHistory
Fore
SplineSet
209 0 m 1
 116 0 l 1
 154 440 l 1
 64 440 l 1
 70 501 l 1
 160 501 l 1
 163 542 l 1
 174 671 202 723 379 724 c 1
 396 724 l 1
 390 651 l 1
 369 651 l 1
 272 650 265 635 257 549 c 2
 252 501 l 1
 540 501 l 1
 496 0 l 1
 403 0 l 1
 441 440 l 1
 247 440 l 1
 209 0 l 1
550 629 m 1
 463 629 l 1
 471 714 l 1
 558 714 l 1
 550 629 l 1
EndSplineSet
EndChar

StartChar: uniFB02
Encoding: 435 64258 418
Width: 623
VWidth: 0
Flags: MW
LayerCount: 2
UndoRedoHistory
Layer: 1
Undoes
EndUndoes
Redoes
EndRedoes
EndUndoRedoHistory
Fore
SplineSet
253 440 m 1
 215 0 l 1
 122 0 l 1
 161 440 l 1
 64 440 l 1
 70 501 l 1
 166 501 l 1
 168 533 l 1
 179 662 225 715 407 715 c 2
 603 715 l 1
 541 0 l 1
 448 0 l 1
 504 643 l 1
 409 643 l 2
 292 643 269 621 263 549 c 2
 259 501 l 1
 377 501 l 1
 372 440 l 1
 253 440 l 1
EndSplineSet
EndChar

StartChar: v
Encoding: 86 118 424
Width: 532
VWidth: 0
Flags: MW
LayerCount: 2
UndoRedoHistory
Layer: 1
Undoes
EndUndoes
Redoes
EndRedoes
EndUndoRedoHistory
Fore
SplineSet
219 0 m 1
 53 501 l 1
 162 501 l 1
 201 369 240 238 278 105 c 1
 336 240 400 369 461 501 c 1
 569 501 l 1
 314 0 l 1
 219 0 l 1
EndSplineSet
EndChar

StartChar: w
Encoding: 87 119 425
Width: 801
VWidth: 0
Flags: MW
LayerCount: 2
UndoRedoHistory
Layer: 1
Undoes
EndUndoes
Redoes
EndRedoes
EndUndoRedoHistory
Fore
SplineSet
181 0 m 1
 54 501 l 1
 160 501 l 1
 188 373 215 244 244 117 c 1
 299 245 353 373 408 501 c 1
 500 501 l 1
 530 373 559 244 589 117 c 1
 638 246 689 373 739 501 c 1
 835 501 l 1
 618 0 l 1
 529 0 l 1
 498 127 467 254 437 382 c 1
 381 255 326 127 270 0 c 1
 181 0 l 1
EndSplineSet
EndChar

StartChar: x
Encoding: 88 120 430
Width: 506
VWidth: 0
Flags: MW
LayerCount: 2
UndoRedoHistory
Layer: 1
Undoes
EndUndoes
Redoes
EndRedoes
EndUndoRedoHistory
Fore
SplineSet
21 0 m 1
 224 248 l 1
 73 501 l 1
 181 501 l 1
 286 322 l 1
 430 501 l 1
 532 501 l 1
 335 258 l 1
 493 0 l 1
 386 0 l 1
 274 183 l 1
 126 0 l 1
 21 0 l 1
EndSplineSet
EndChar

StartChar: y
Encoding: 89 121 431
Width: 528
VWidth: 0
Flags: MW
LayerCount: 2
UndoRedoHistory
Layer: 1
Undoes
EndUndoes
Redoes
EndRedoes
EndUndoRedoHistory
Fore
SplineSet
84 -214 m 1
 56 -146 l 1
 148 -119 196 -64 216 -21 c 2
 229 6 l 1
 66 501 l 1
 168 501 l 1
 285 111 l 1
 456 501 l 1
 560 501 l 1
 308 -34 l 2
 262 -133 185 -194 84 -214 c 1
EndSplineSet
EndChar

StartChar: yen
Encoding: 100 165 435
Width: 606
VWidth: 0
Flags: MW
LayerCount: 2
UndoRedoHistory
Layer: 1
Undoes
EndUndoes
Redoes
EndRedoes
EndUndoRedoHistory
Fore
SplineSet
367 129 m 1
 356 0 l 1
 253 0 l 1
 264 129 l 1
 92 129 l 1
 99 186 l 1
 269 186 l 1
 278 281 l 1
 104 281 l 1
 111 340 l 1
 250 340 l 1
 68 711 l 1
 182 711 l 1
 339 378 l 1
 551 711 l 1
 668 711 l 1
 417 340 l 1
 549 340 l 1
 542 281 l 1
 381 281 l 1
 372 186 l 1
 537 186 l 1
 530 129 l 1
 367 129 l 1
EndSplineSet
EndChar

StartChar: z
Encoding: 90 122 437
Width: 471
VWidth: 0
Flags: MW
LayerCount: 2
UndoRedoHistory
Layer: 1
Undoes
EndUndoes
Redoes
EndRedoes
EndUndoRedoHistory
Fore
SplineSet
62 0 m 1
 66 53 l 1
 342 421 l 1
 96 421 l 1
 104 501 l 1
 478 501 l 1
 473 449 l 1
 197 80 l 1
 448 80 l 1
 447 0 l 1
 62 0 l 1
EndSplineSet
EndChar

StartChar: zero
Encoding: 16 48 441
Width: 605
VWidth: 0
Flags: MW
LayerCount: 2
UndoRedoHistory
Layer: 1
Undoes
EndUndoes
Redoes
EndRedoes
EndUndoRedoHistory
Fore
SplineSet
305 -11 m 0
 161 -11 90 109 90 291 c 0
 90 546 193 724 371 724 c 0
 515 724 583 613 583 432 c 0
 583 184 487 -11 305 -11 c 0
314 77 m 0
 431 77 476 255 476 434 c 0
 476 550 447 636 363 636 c 0
 241 636 195 456 195 283 c 0
 195 161 227 77 314 77 c 0
EndSplineSet
EndChar

StartChar: eth
Encoding: 174 240 442
Width: 595
Flags: MW
LayerCount: 2
UndoRedoHistory
Layer: 1
Undoes
EndUndoes
Redoes
EndRedoes
EndUndoRedoHistory
Fore
SplineSet
292 368 m 0
 209 368 141 308 141 206 c 0
 141 119 195 67 265 67 c 0
 350 67 417 138 417 242 c 0
 417 319 356 368 292 368 c 0
36 201 m 0
 36 347 151 443 293 443 c 0
 368 443 423 402 441 361 c 1
 441 368 442 375 442 382 c 0
 442 458 406 525 350 582 c 1
 229 511 l 1
 200 564 l 1
 302 625 l 1
 260 656 211 679 157 691 c 1
 201 758 l 1
 262 745 325 715 380 670 c 1
 498 740 l 1
 527 686 l 1
 427 627 l 1
 491 557 536 462 536 347 c 0
 536 121 421 -11 255 -11 c 0
 117 -11 36 82 36 201 c 0
EndSplineSet
EndChar

StartChar: acutecomb
Encoding: 441 769 444
Width: 0
VWidth: 0
Flags: MW
LayerCount: 2
UndoRedoHistory
Layer: 1
Undoes
EndUndoes
Redoes
EndRedoes
EndUndoRedoHistory
Fore
SplineSet
-133 563 m 1
 3 748 l 1
 132 748 l 1
 -45 563 l 1
 -133 563 l 1
EndSplineSet
EndChar

StartChar: caroncomb
Encoding: 442 780 445
Width: 0
VWidth: 0
Flags: MW
LayerCount: 2
UndoRedoHistory
Layer: 1
Undoes
EndUndoes
Redoes
EndRedoes
EndUndoRedoHistory
Fore
SplineSet
-58 556 m 1
 -167 738 l 1
 -77 738 l 1
 -11 624 l 1
 75 738 l 1
 167 738 l 1
 27 556 l 1
 -58 556 l 1
EndSplineSet
EndChar

StartChar: circumflexcomb
Encoding: 443 770 446
Width: 0
VWidth: 0
Flags: MW
LayerCount: 2
UndoRedoHistory
Layer: 1
Undoes
EndUndoes
Redoes
EndRedoes
EndUndoRedoHistory
Fore
SplineSet
-31 735 m 1
 61 735 l 1
 165 556 l 1
 77 556 l 1
 9 667 l 1
 -79 556 l 1
 -165 556 l 1
 -31 735 l 1
EndSplineSet
EndChar

StartChar: gravecomb
Encoding: 444 768 447
Width: 0
VWidth: 0
Flags: MW
LayerCount: 2
UndoRedoHistory
Layer: 1
Undoes
EndUndoes
Redoes
EndRedoes
EndUndoRedoHistory
Fore
SplineSet
31 563 m 1
 -118 748 l 1
 12 748 l 1
 119 563 l 1
 31 563 l 1
EndSplineSet
EndChar

StartChar: uni02BC
Encoding: 447 700 453
Width: 256
VWidth: 0
Flags: MW
LayerCount: 2
UndoRedoHistory
Layer: 1
Undoes
EndUndoes
Redoes
EndRedoes
EndUndoRedoHistory
Fore
SplineSet
24 -133 m 1
 103 121 l 1
 211 121 l 1
 106 -133 l 1
 24 -133 l 1
EndSplineSet
EndChar

StartChar: uni018F
Encoding: 445 399 454
Width: 727
VWidth: 0
Flags: MW
LayerCount: 2
UndoRedoHistory
Layer: 1
Undoes
EndUndoes
Redoes
EndRedoes
EndUndoRedoHistory
Fore
SplineSet
182 313 m 1
 182 311 182 310 182 308 c 0
 182 153 266 77 375 77 c 0
 490 77 577 179 603 313 c 1
 182 313 l 1
722 408 m 0
 722 158 560 -11 376 -11 c 0
 226 -11 82 73 82 323 c 0
 82 347 83 376 86 401 c 1
 612 401 l 1
 612 402 612 405 612 406 c 0
 612 564 520 634 402 634 c 0
 330 634 248 609 171 562 c 1
 144 645 l 1
 236 698 331 724 417 724 c 0
 588 724 722 618 722 408 c 0
EndSplineSet
EndChar

StartChar: uni0259
Encoding: 446 601 455
Width: 562
VWidth: 0
Flags: MW
LayerCount: 2
UndoRedoHistory
Layer: 1
Undoes
EndUndoes
Redoes
EndRedoes
EndUndoRedoHistory
Fore
SplineSet
428 205 m 1
 157 205 l 1
 159 115 206 68 278 68 c 0
 350 68 407 119 428 205 c 1
71 213 m 0
 71 237 72 249 77 273 c 1
 436 273 l 1
 436 278 437 283 437 288 c 0
 437 385 375 432 286 432 c 0
 228 432 174 415 124 377 c 1
 102 451 l 1
 160 493 226 513 300 513 c 0
 451 513 540 423 540 284 c 0
 540 116 428 -11 274 -11 c 0
 135 -11 71 83 71 213 c 0
EndSplineSet
EndChar
